<svg preserveAspectRatio="none" width="100%" height="100%" overflow="visible" style="display: block;" viewBox="0 0 188 83" fill="none" xmlns="http://www.w3.org/2000/svg">
  <g clip-path="url(#clip0)">
    <path d="M5.33004 39.9428C2.59645 39.9428 0.690645 38.4128 0.690645 35.6799C0.690645 32.9471 2.59645 31.417 5.33004 31.417H13.473V27.0964C13.473 24.1037 15.4462 22.7084 18.4397 22.7084C21.4332 22.7084 23.3967 24.1037 23.3967 27.0964V31.417H30.9045C33.5803 31.417 35.5439 32.9471 35.5439 35.6799C35.5439 38.4128 33.5707 39.9428 30.9045 39.9428H23.3967C23.4641 47.7661 27.4009 53.867 34.4658 59.2172C36.6893 60.8724 37.3919 62.845 36.4968 65.0679C35.6016 67.3581 32.3001 68.3108 29.9419 67.0406C25.3603 64.5001 21.0963 59.8523 18.4301 55.4644C15.9468 60.0448 11.5576 65.2603 6.91822 67.6757C4.50227 68.8881 1.25854 67.9932 0.363385 65.703C-0.522143 63.4801 0.170879 61.5075 2.39432 59.8523C9.39192 54.5117 13.3383 47.7661 13.4634 39.9428H5.33004ZM40.7993 28.6264C40.7993 25.6337 42.8976 23.9882 45.8911 23.9882C48.8845 23.9882 50.9829 25.6434 50.9829 28.6264V78.3569C50.9829 81.3496 48.8845 82.9951 45.8911 82.9951C42.8976 82.9951 40.7993 81.34 40.7993 78.3569V28.6264Z" fill="white"/>
    <path d="M64.5065 50.8837C61.8307 50.8837 60.1174 49.4211 60.1174 46.746C60.1174 44.0708 61.8403 42.6082 64.5065 42.6082H66.9225C70.8015 42.6082 74.9403 42.4831 80.2824 42.0982C80.3498 41.3957 80.4075 40.7028 80.4075 39.933V36.9403C80.4075 35.7952 80.215 35.4777 78.9445 35.4777H65.6519C62.9761 35.4777 61.3879 33.8899 61.3879 31.2148C61.3879 28.5397 62.9761 26.9519 65.6519 26.9519H84.2288C88.3676 26.9519 90.5911 28.9823 90.5911 33.1201V37.893C90.5911 52.3272 80.7348 63.9034 66.7973 70.0716C64.4488 71.0916 61.5804 70.9665 60.1848 68.2914C58.972 66.1262 59.6072 63.2683 62.2831 61.873C68.6454 58.5052 73.8623 54.7521 76.9809 50.2968C73.6121 50.6143 70.3009 50.8741 66.9321 50.8741H64.5161L64.5065 50.8837ZM95.9909 28.6263C95.9909 25.6336 98.0892 23.9881 101.083 23.9881C104.076 23.9881 106.174 25.6432 106.174 28.6263V43.6955H110.689C113.365 43.6955 115.203 45.1582 115.203 48.0835C115.203 51.0088 113.355 52.4138 110.689 52.4138H106.174V78.3568C106.174 81.3495 104.076 82.995 101.083 82.995C98.0892 82.995 95.9909 81.3398 95.9909 78.3568V28.6263Z" fill="white"/>
    <path d="M122.46 56.032C119.727 56.032 117.879 54.9543 117.879 52.2118C117.879 49.4693 119.727 48.3916 122.46 48.3916H124.433C123.923 45.9762 123.798 43.176 123.798 41.0109V39.1633C123.798 36.3053 125.646 34.9004 128.505 34.9004C131.364 34.9004 133.212 36.2957 133.212 39.1633V41.4535C133.212 44.1287 133.337 46.2842 133.655 48.3819H139.507C139.824 46.2842 139.949 44.119 139.949 41.4535V39.1633C139.949 36.3053 141.798 34.9004 144.656 34.9004C147.515 34.9004 149.363 36.2957 149.363 39.1633V41.0109C149.363 42.9836 149.238 45.524 148.786 47.8142L151.644 47.4966C154.06 47.2368 155.523 48.1317 155.841 50.4893C156.158 52.8373 154.888 54.6271 152.279 55.0024C147.063 55.7626 143.376 56.0224 139.305 56.0224H122.451L122.46 56.032ZM149.373 25.3161C152.106 25.3161 153.954 26.3939 153.954 29.1364C153.954 31.8789 152.106 32.9566 149.373 32.9566H123.798C121.065 32.9566 119.217 31.8789 119.217 29.1364C119.217 26.3939 121.065 25.3161 123.798 25.3161H149.373ZM159.547 69.0709C159.547 68.6283 159.296 68.3684 158.844 68.3684H131.614C129.131 68.3684 127.225 66.8384 127.225 64.1729C127.225 61.5074 129.131 59.9774 131.614 59.9774H164.061C168.2 59.9774 169.721 61.3727 169.721 65.5105V78.3569C169.721 81.3496 167.622 82.9951 164.629 82.9951C161.635 82.9951 159.537 81.3399 159.537 78.3569V69.0709H159.547ZM159.547 35.2372C159.547 32.2445 161.578 30.6568 164.571 30.6568C167.564 30.6568 169.721 32.2445 169.721 35.2372V52.1541C169.721 55.1467 167.622 56.7922 164.629 56.7922C161.635 56.7922 159.537 55.1371 159.537 52.1541V35.2372H159.547Z" fill="white"/>
    <path d="M150.328 10.4544L148.553 12.4707C147.782 13.3444 147.82 14.7558 148.65 15.5719L160.689 27.4773C162.782 29.5512 165.985 29.4936 168.021 27.3429L187.632 4.68413C188.095 4.19447 188.124 3.36876 187.7 2.8503L185.385 0.584424C184.816 -0.116462 183.841 -0.202872 183.176 0.382799L165.213 16.8872C164.007 17.9529 162.184 17.9721 160.949 16.9352L153.02 10.2432C152.2 9.55192 151.042 9.64793 150.328 10.464V10.4544Z" fill="#F78B33"/>
  </g>
  <defs>
    <clipPath id="clip0"><rect width="188" height="83" fill="white"/></clipPath>
  </defs>
</svg>
