<svg width="186" height="82" viewBox="0 0 186 82" fill="none" xmlns="http://www.w3.org/2000/svg">
<g clip-path="url(#clip0_533_2259)">
<path d="M5.27323 39.4616C2.56872 39.4616 0.683189 37.95 0.683189 35.25C0.683189 32.5501 2.56872 31.0385 5.27323 31.0385H13.3296V26.7699C13.3296 23.8133 15.2818 22.4348 18.2434 22.4348C21.2051 22.4348 23.1477 23.8133 23.1477 26.7699V31.0385H30.5756C33.223 31.0385 35.1656 32.5501 35.1656 35.25C35.1656 37.95 33.2134 39.4616 30.5756 39.4616H23.1477C23.2144 47.1906 27.1093 53.218 34.0991 58.5038C36.2989 60.1389 36.994 62.0878 36.1084 64.2839C35.2228 66.5465 31.9564 67.4877 29.6233 66.2328C25.0904 63.723 20.8718 59.1312 18.2339 54.7961C15.777 59.3214 11.4346 64.4741 6.84451 66.8603C4.45426 68.0581 1.24504 67.174 0.35941 64.9114C-0.516698 62.7153 0.168952 60.7664 2.36874 59.1312C9.2919 53.8549 13.1963 47.1906 13.3201 39.4616H5.27323ZM40.3651 28.2815C40.3651 25.3249 42.4411 23.6992 45.4028 23.6992C48.3644 23.6992 50.4404 25.3344 50.4404 28.2815V77.4129C50.4404 80.3695 48.3644 81.9952 45.4028 81.9952C42.4411 81.9952 40.3651 80.36 40.3651 77.4129V28.2815Z" fill="#001371"/>
<path d="M63.8202 50.2706C61.1729 50.2706 59.4778 48.8256 59.4778 46.1827C59.4778 43.5397 61.1824 42.0947 63.8202 42.0947H66.2105C70.0482 42.0947 74.1431 41.9711 79.4283 41.5908C79.495 40.8968 79.5521 40.2124 79.5521 39.4518V36.4952C79.5521 35.3639 79.3616 35.0501 78.1046 35.0501H64.9535C62.3061 35.0501 60.7348 33.4815 60.7348 30.8386C60.7348 28.1957 62.3061 26.6271 64.9535 26.6271H83.3327C87.4275 26.6271 89.6273 28.633 89.6273 32.721V37.4364C89.6273 51.6966 79.8759 63.1333 66.0867 69.2272C63.7631 70.235 60.9253 70.1114 59.5445 67.4685C58.3446 65.3294 58.9731 62.5059 61.6205 61.1274C67.9151 57.8 73.0765 54.0923 76.1619 49.6907C72.8289 50.0044 69.553 50.2611 66.22 50.2611H63.8298L63.8202 50.2706ZM94.9697 28.2813C94.9697 25.3246 97.0457 23.699 100.007 23.699C102.969 23.699 105.045 25.3342 105.045 28.2813V43.169H109.511C112.159 43.169 113.977 44.614 113.977 47.5041C113.977 50.3942 112.149 51.7822 109.511 51.7822H105.045V77.4126C105.045 80.3692 102.969 81.9949 100.007 81.9949C97.0457 81.9949 94.9697 80.3597 94.9697 77.4126V28.2813Z" fill="#001371"/>
<path d="M121.157 55.3568C118.453 55.3568 116.625 54.2921 116.625 51.5826C116.625 48.8732 118.453 47.8084 121.157 47.8084H123.11C122.605 45.4222 122.481 42.6557 122.481 40.5166V38.6913C122.481 35.8678 124.309 34.4798 127.138 34.4798C129.966 34.4798 131.794 35.8583 131.794 38.6913V40.954C131.794 43.5969 131.918 45.7264 132.233 47.7989H138.022C138.337 45.7264 138.461 43.5874 138.461 40.954V38.6913C138.461 35.8678 140.289 34.4798 143.117 34.4798C145.946 34.4798 147.774 35.8583 147.774 38.6913V40.5166C147.774 42.4655 147.65 44.9754 147.203 47.238L150.031 46.9243C152.421 46.6676 153.869 47.5517 154.183 49.8809C154.497 52.2005 153.24 53.9688 150.659 54.3396C145.498 55.0906 141.851 55.3473 137.822 55.3473H121.148L121.157 55.3568ZM147.783 25.011C150.488 25.011 152.316 26.0758 152.316 28.7852C152.316 31.4947 150.488 32.5594 147.783 32.5594H122.481C119.777 32.5594 117.948 31.4947 117.948 28.7852C117.948 26.0758 119.777 25.011 122.481 25.011H147.783ZM157.849 68.2386C157.849 67.8013 157.602 67.5446 157.154 67.5446H130.214C127.757 67.5446 125.871 66.033 125.871 63.3996C125.871 60.7662 127.757 59.2546 130.214 59.2546H162.315C166.41 59.2546 167.915 60.6331 167.915 64.7211V77.4127C167.915 80.3693 165.839 81.995 162.877 81.995C159.916 81.995 157.84 80.3598 157.84 77.4127V68.2386H157.849ZM157.849 34.8125C157.849 31.8559 159.859 30.2873 162.82 30.2873C165.782 30.2873 167.915 31.8559 167.915 34.8125V51.5256C167.915 54.4822 165.839 56.1079 162.877 56.1079C159.916 56.1079 157.84 54.4727 157.84 51.5256V34.8125H157.849Z" fill="#001371"/>
<path d="M148.729 10.3284L146.973 12.3204C146.21 13.1835 146.248 14.5779 147.069 15.3842L158.98 27.1462C161.051 29.1951 164.22 29.1382 166.233 27.0134L185.637 4.62763C186.095 4.14387 186.123 3.32812 185.703 2.8159L183.413 0.577324C182.85 -0.115117 181.886 -0.200487 181.227 0.378128L163.456 16.6837C162.263 17.7366 160.459 17.7556 159.237 16.7311L151.392 10.1197C150.581 9.43678 149.436 9.53163 148.729 10.3379V10.3284Z" fill="#FF7B03"/>
</g>
<defs>
<clipPath id="clip0_533_2259">
<rect width="186" height="82" fill="white"/>
</clipPath>
</defs>
</svg>
