<svg width="24" height="24" viewBox="0 0 24 24" fill="none" xmlns="http://www.w3.org/2000/svg">
<path fill-rule="evenodd" clip-rule="evenodd" d="M15.9385 2.31367C16.4516 1.89543 17.192 1.89546 17.7051 2.31367L17.8115 2.40938L21.4834 6.08125C22.0297 6.62787 22.0296 7.51408 21.4834 8.06074L8.36133 21.1828C8.09879 21.4452 7.74231 21.593 7.37109 21.593H3.7002C2.927 21.593 2.2998 20.9658 2.2998 20.1926V16.5217C2.29989 16.1506 2.4476 15.7939 2.70996 15.5314L15.832 2.40938L15.9385 2.31367ZM4.10059 16.6867V19.7922H7.20605L16.0352 10.9621L12.9297 7.85664L4.10059 16.6867ZM14.2021 6.58418L17.3076 9.68965L19.9268 7.07051L16.8213 3.96504L14.2021 6.58418Z" fill="#596072"/>
<path d="M20.7139 19.7922C21.2107 19.7923 21.6131 20.1957 21.6133 20.6926C21.6133 21.1896 21.2108 21.5929 20.7139 21.593H12.9033C12.4063 21.593 12.0029 21.1896 12.0029 20.6926C12.0031 20.1957 12.4064 19.7922 12.9033 19.7922H20.7139Z" fill="#596072"/>
</svg>
