<svg width="24" height="24" viewBox="0 0 24 24" fill="none" xmlns="http://www.w3.org/2000/svg">
<path d="M8.43952 2.68199C10.6273 1.87453 13.0316 1.84028 15.2423 2.58433C17.4532 3.32858 19.3367 4.80699 20.5674 6.76988C21.7982 8.73294 22.2994 11.0576 21.9825 13.346C21.6654 15.6346 20.5508 17.7418 18.8331 19.307C17.1158 20.8717 14.9017 21.7983 12.5704 21.933C10.2389 22.0675 7.93056 21.4011 6.04011 20.0453C4.14952 18.6893 2.79269 16.7272 2.20612 14.4916C2.07301 13.9841 2.37649 13.4646 2.88386 13.3314C3.39136 13.1983 3.91088 13.5016 4.04401 14.0091C4.51704 15.8122 5.61285 17.4006 7.14753 18.5013C8.6826 19.6023 10.561 20.1461 12.461 20.0365C14.3608 19.9267 16.1601 19.1707 17.5528 17.9017C18.9453 16.6329 19.8451 14.9299 20.1007 13.0853C20.356 11.241 19.9529 9.36528 18.9581 7.77867C17.963 6.19164 16.4363 4.99091 14.6368 4.38511C12.8371 3.7793 10.8785 3.80704 9.09772 4.46421C7.43116 5.0793 6.01924 6.20911 5.06843 7.67515H7.40925C7.93392 7.67515 8.35944 8.10067 8.35944 8.62534C8.35927 9.14987 7.93381 9.57456 7.40925 9.57456H3.12507C2.6005 9.57456 2.17504 9.14987 2.17487 8.62534V4.12534C2.17487 3.60067 2.6004 3.17515 3.12507 3.17515C3.64974 3.17515 4.07526 3.60067 4.07526 4.12534V5.8148C5.21028 4.40573 6.71553 3.31828 8.43952 2.68199ZM11.0323 6.93784C11.0323 6.41317 11.4578 5.98765 11.9825 5.98765C12.507 5.98784 12.9317 6.41329 12.9317 6.93784V11.8177L16.7813 12.765C17.2907 12.8903 17.6028 13.405 17.4776 13.9144C17.3523 14.4238 16.8376 14.7348 16.3282 14.6097L11.7549 13.4847C11.3306 13.3802 11.0324 12.9999 11.0323 12.5628V6.93784Z" fill="#596072"/>
</svg>
