<svg preserveAspectRatio="none" width="100%" height="100%" overflow="visible" style="display: block;" viewBox="0 0 16 16" fill="none" xmlns="http://www.w3.org/2000/svg">
  <path d="M13.3932 7.73242C13.3271 6.39768 12.7678 5.13109 11.8184 4.18164C10.8057 3.16894 9.43217 2.60026 8 2.60026C7.29089 2.60026 6.58873 2.73971 5.93359 3.01107C5.27844 3.28244 4.68308 3.6802 4.18164 4.18164C3.6802 4.68308 3.28244 5.27844 3.01107 5.93359C2.73971 6.58873 2.60026 7.29089 2.60026 8L2.60677 8.26562C2.63723 8.88399 2.77365 9.4932 3.01107 10.0664C3.28244 10.7216 3.6802 11.3169 4.18164 11.8184C4.68308 12.3198 5.27844 12.7176 5.93359 12.9889C6.58873 13.2603 7.29089 13.3997 8 13.3997C9.43217 13.3997 10.8057 12.8311 11.8184 11.8184C12.8311 10.8057 13.3997 9.43217 13.3997 8L13.3932 7.73242ZM7.39974 10.6667V7.33333C7.39974 7.00196 7.66863 6.73307 8 6.73307C8.33137 6.73307 8.60026 7.00196 8.60026 7.33333V10.6667C8.60026 10.998 8.33137 11.2669 8 11.2669C7.66863 11.2669 7.39974 10.998 7.39974 10.6667ZM8.0332 4.73307C8.36457 4.73307 8.63346 5.00196 8.63346 5.33333V5.39974C8.63346 5.73111 8.36457 6 8.0332 6H7.9668C7.63543 6 7.36654 5.73111 7.36654 5.39974V5.33333C7.36654 5.00196 7.63543 4.73307 7.9668 4.73307H8.0332ZM14.5918 8.32747C14.5108 9.95867 13.827 11.5063 12.6667 12.6667C11.4289 13.9044 9.75043 14.6003 8 14.6003C7.13338 14.6003 6.27528 14.4293 5.47461 14.0977C4.67386 13.766 3.9462 13.2795 3.33333 12.6667C2.72047 12.0538 2.23402 11.3261 1.90234 10.5254C1.57074 9.72472 1.39974 8.86662 1.39974 8C1.39974 7.13338 1.57074 6.27528 1.90234 5.47461C2.23402 4.67386 2.72047 3.9462 3.33333 3.33333C3.9462 2.72047 4.67386 2.23403 5.47461 1.90234C6.27527 1.57074 7.13338 1.39974 8 1.39974C9.75043 1.39974 11.4289 2.09559 12.6667 3.33333C13.9044 4.57107 14.6003 6.24957 14.6003 8L14.5918 8.32747Z" fill="#999DA8"/>
</svg>
