<svg width="24" height="24" viewBox="0 0 24 24" fill="none" xmlns="http://www.w3.org/2000/svg">
<path d="M2 18.4998V14.4998C2 13.9475 2.44772 13.4998 3 13.4998C3.55228 13.4998 4 13.9475 4 14.4998V18.4998C4 18.765 4.10543 19.0193 4.29297 19.2068C4.48051 19.3943 4.73478 19.4998 5 19.4998H19C19.2652 19.4998 19.5195 19.3943 19.707 19.2068C19.8946 19.0193 20 18.765 20 18.4998V14.4998C20 13.9475 20.4477 13.4998 21 13.4998C21.5523 13.4998 22 13.9475 22 14.4998V18.4998C22 19.2954 21.6837 20.0583 21.1211 20.6209C20.5585 21.1835 19.7957 21.4998 19 21.4998H5C4.20435 21.4998 3.44152 21.1835 2.87891 20.6209C2.3163 20.0582 2 19.2954 2 18.4998ZM11 15.4998V5.91383L7.70703 9.2068C7.31651 9.59732 6.68349 9.59732 6.29297 9.2068C5.90244 8.81627 5.90244 8.18326 6.29297 7.79273L11.293 2.79273L11.3691 2.72438C11.7619 2.40402 12.3409 2.42662 12.707 2.79273L17.707 7.79273C18.0976 8.18326 18.0976 8.81627 17.707 9.2068C17.3165 9.59732 16.6835 9.59732 16.293 9.2068L13 5.91383V15.4998C13 16.0521 12.5523 16.4998 12 16.4998C11.4477 16.4998 11 16.0521 11 15.4998Z" fill="#596072"/>
</svg>
