<svg preserveAspectRatio="none" width="100%" height="100%" overflow="visible" style="display: block;" viewBox="0 0 20 20" fill="none" xmlns="http://www.w3.org/2000/svg">
<g id="Icons">
<path id="Vector" d="M15.8333 2.58301C16.4743 2.58301 17.0891 2.8378 17.5423 3.29102C17.9955 3.74423 18.2503 4.35906 18.2503 5V13.333C18.2503 13.9739 17.9954 14.5888 17.5423 15.042C17.0891 15.4952 16.4743 15.75 15.8333 15.75H6.389C6.19073 15.75 5.99781 15.8146 5.83919 15.9336L2.94954 18.0996C2.72231 18.2699 2.41838 18.2979 2.16439 18.1709C1.91038 18.0438 1.74935 17.784 1.74935 17.5V5C1.74935 4.35914 2.00425 3.74421 2.45736 3.29102C2.91049 2.83788 3.52552 2.58309 4.16634 2.58301H15.8333ZM4.16634 4.08398C3.92334 4.08407 3.69071 4.18071 3.51888 4.35254C3.34707 4.52443 3.25033 4.75696 3.25033 5V15.999L4.9388 14.7334C5.35707 14.4197 5.86616 14.25 6.389 14.25H15.8333C16.0763 14.25 16.3089 14.1532 16.4808 13.9814C16.6527 13.8095 16.7493 13.5761 16.7493 13.333V5C16.7493 4.75689 16.6527 4.52445 16.4808 4.35254C16.3089 4.18063 16.0764 4.08398 15.8333 4.08398H4.16634ZM12.5003 10.083C12.9143 10.0832 13.2501 10.4191 13.2503 10.833C13.2503 11.2471 12.9144 11.5838 12.5003 11.584H5.83333C5.41912 11.584 5.08333 11.2472 5.08333 10.833C5.08351 10.4189 5.41923 10.083 5.83333 10.083H12.5003ZM14.1663 6.75C14.5806 6.75 14.9173 7.08579 14.9173 7.5C14.9173 7.91421 14.5806 8.25 14.1663 8.25H5.83333C5.41912 8.25 5.08333 7.91421 5.08333 7.5C5.08333 7.08579 5.41912 6.75 5.83333 6.75H14.1663Z" fill="var(--fill-0, #787E8C)"/>
</g>
</svg>
