<svg width="24" height="24" viewBox="0 0 24 24" fill="none" xmlns="http://www.w3.org/2000/svg">
<path fill-rule="evenodd" clip-rule="evenodd" d="M12 2C17.5228 2 22 6.47715 22 12C22 17.5228 17.5228 22 12 22C6.47715 22 2 17.5228 2 12C2 6.47715 6.47715 2 12 2ZM12.0225 15.4004C10.0225 15.4004 8.21866 16.7283 7.36523 18.7646C8.68382 19.6698 10.2798 20.2002 12 20.2002C13.7346 20.2002 15.342 19.6594 16.667 18.7402C15.8095 16.7182 14.0141 15.4006 12.0225 15.4004ZM12 3.7998C7.47126 3.7998 3.7998 7.47126 3.7998 12C3.7998 14.1349 4.61609 16.079 5.95312 17.5381C6.73311 16.0056 7.97909 14.776 9.50098 14.1201C8.35286 13.326 7.59961 12.0015 7.59961 10.5C7.59961 8.06995 9.56995 6.09961 12 6.09961C14.4301 6.09961 16.4004 8.06995 16.4004 10.5C16.4004 11.9942 15.6543 13.313 14.5156 14.1084C16.0399 14.757 17.2896 15.9802 18.0752 17.5078C19.3957 16.0522 20.2002 14.12 20.2002 12C20.2002 7.47126 16.5287 3.7998 12 3.7998ZM12 7.90039C10.5641 7.90039 9.40039 9.06406 9.40039 10.5C9.40039 11.9359 10.5641 13.0996 12 13.0996C13.4359 13.0996 14.5996 11.9359 14.5996 10.5C14.5996 9.06406 13.4359 7.90039 12 7.90039Z" fill="#596072"/>
</svg>
