<svg preserveAspectRatio="none" width="100%" height="100%" overflow="visible" style="display: block;" viewBox="0 0 20 20" fill="none" xmlns="http://www.w3.org/2000/svg">
<g id="Icons">
<g id="Vector">
<path fill-rule="evenodd" clip-rule="evenodd" d="M10.1972 6.3381C11.1036 6.38298 11.9638 6.76272 12.6085 7.40743C13.2961 8.09507 13.6827 9.02774 13.6827 10.0002L13.6778 10.1817C13.6329 11.088 13.2532 11.9483 12.6085 12.593C11.9209 13.2805 10.9881 13.6672 10.0157 13.6672C9.04336 13.6671 8.11052 13.2805 7.42295 12.593C6.77828 11.9483 6.39854 11.088 6.35362 10.1817L6.34874 10.0002C6.34874 9.02786 6.73547 8.09504 7.42295 7.40743C8.11052 6.71986 9.04336 6.33328 10.0157 6.33321L10.1972 6.3381ZM10.0157 7.83386C9.44119 7.83394 8.8896 8.06155 8.48334 8.46782C8.07716 8.87412 7.84939 9.42568 7.84939 10.0002L7.85997 10.2142C7.90923 10.7102 8.12784 11.1771 8.48334 11.5326C8.8896 11.9389 9.44119 12.1665 10.0157 12.1665C10.5903 12.1665 11.1418 11.9388 11.5481 11.5326C11.9544 11.1263 12.182 10.5748 12.1821 10.0002C12.1821 9.42557 11.9544 8.87415 11.5481 8.46782C11.1418 8.06151 10.5903 7.83386 10.0157 7.83386Z" fill="var(--fill-0, #787E8C)"/>
<path fill-rule="evenodd" clip-rule="evenodd" d="M10.5162 0.922243C10.7877 0.922242 11.0551 0.921682 11.2796 0.94747C11.5234 0.975535 11.7917 1.04148 12.0429 1.22416L12.0421 1.22498C12.2917 1.40561 12.4381 1.63693 12.541 1.85812C12.636 2.06251 12.7194 2.31606 12.8054 2.57426L13.0756 3.38155C13.1449 3.55807 13.2671 3.7088 13.4256 3.81287L13.6632 3.94959C13.8487 4.04289 14.0611 4.06898 14.2654 4.02364L15.255 3.74451C15.5359 3.6652 15.8111 3.58603 16.0476 3.54838C16.3035 3.50771 16.5966 3.50055 16.9021 3.62488C17.2081 3.74899 17.4142 3.95887 17.5703 4.16769C17.7141 4.36017 17.8554 4.60869 18.0016 4.86267L18.4142 5.57638C18.5512 5.81444 18.6869 6.04733 18.7771 6.2559C18.8752 6.48289 18.9512 6.74838 18.9187 7.0575C18.8862 7.36692 18.7559 7.61109 18.6127 7.81271C18.4812 7.99792 18.3002 8.19607 18.1171 8.39946L18.1179 8.40027L17.283 9.33289C17.1964 9.44978 17.0909 9.73413 17.0909 10.0067C17.0909 10.2783 17.1956 10.5615 17.283 10.6797L18.1171 11.6115L18.3841 11.9126C18.4686 12.0111 18.5469 12.1073 18.6127 12.1999C18.7379 12.3761 18.853 12.5851 18.9016 12.842L18.9187 12.9551L18.926 13.0691C18.9319 13.3306 18.8623 13.5591 18.7763 13.7575C18.6859 13.9661 18.5503 14.1987 18.4134 14.4362L18.4125 14.4354L18.0024 15.1499C17.8561 15.4037 17.7141 15.6525 17.5703 15.8449C17.4144 16.0535 17.2094 16.2631 16.9046 16.3877C16.5988 16.5121 16.3045 16.5051 16.0476 16.4642C15.811 16.4265 15.5368 16.3471 15.2558 16.2673L14.2646 15.9873C14.0598 15.9425 13.8458 15.9704 13.6559 16.0663L13.4288 16.1973C13.2695 16.3004 13.1467 16.4502 13.0773 16.6262L12.8046 17.4392C12.7191 17.6971 12.6357 17.9503 12.541 18.1545C12.4379 18.3767 12.2913 18.609 12.0413 18.7901C11.7903 18.9717 11.5229 19.0373 11.2796 19.0651C11.0553 19.0908 10.7878 19.0904 10.5162 19.0904H9.58685C9.31501 19.0904 9.04753 19.0915 8.82351 19.066C8.5804 19.0382 8.31396 18.9723 8.06342 18.7925L8.05935 18.7901C7.8103 18.6087 7.66435 18.3765 7.5613 18.1545C7.46641 17.9501 7.38293 17.6967 7.29681 17.4384L7.02582 16.6311C6.95576 16.4516 6.83146 16.2984 6.66937 16.1949L6.44314 16.0638C6.25477 15.9696 6.03926 15.9432 5.8336 15.989L4.84808 16.2681L4.84727 16.2673C4.56562 16.3472 4.2915 16.4268 4.05463 16.4642C3.79718 16.5049 3.50492 16.5113 3.20013 16.3877C2.89431 16.2636 2.68881 16.0535 2.53282 15.8449C2.38886 15.6524 2.24618 15.4045 2.09987 15.1508L1.6889 14.4362C1.55145 14.1979 1.41623 13.965 1.32595 13.7559C1.22808 13.5292 1.1519 13.2639 1.18435 12.9551L1.20062 12.842C1.24925 12.5854 1.3646 12.3767 1.48952 12.2007C1.55531 12.1081 1.63373 12.012 1.7182 11.9135L1.98513 11.6115L2.81928 10.6789C2.90574 10.5615 3.01133 10.2787 3.01133 10.0067C3.01133 9.73439 2.90653 9.45114 2.82009 9.33452L1.98431 8.40027C1.80159 8.19686 1.62084 7.99749 1.48952 7.81271C1.34645 7.61135 1.21684 7.36711 1.18435 7.0575C1.15181 6.74786 1.22874 6.48213 1.32676 6.2559C1.41706 6.04756 1.55193 5.81432 1.6889 5.57638L2.09987 4.86267C2.24618 4.60889 2.38885 4.36021 2.53282 4.16769C2.66929 3.98521 2.84322 3.80143 3.08946 3.67534L3.20013 3.62488C3.50545 3.50095 3.7983 3.5086 4.05463 3.5492C4.2914 3.58672 4.56644 3.6658 4.84808 3.74532L5.83441 4.02364C6.03956 4.06927 6.25452 4.04266 6.44151 3.94877L6.6767 3.81287C6.8353 3.70914 6.957 3.55863 7.02663 3.38237L7.29763 2.57426C7.38353 2.31654 7.46749 2.06309 7.56211 1.85893C7.66461 1.63782 7.8101 1.40515 8.06016 1.22416C8.311 1.04226 8.57856 0.975638 8.82269 0.94747C9.04726 0.921612 9.31519 0.922242 9.58685 0.922243H10.5162ZM9.58685 2.42289C9.28045 2.42289 9.11348 2.42383 8.99441 2.43754C8.97339 2.43998 8.95736 2.44349 8.94558 2.44568C8.93976 2.45629 8.93168 2.47046 8.92279 2.48963C8.87196 2.59931 8.81818 2.7579 8.72097 3.04952L8.72015 3.05034L8.44183 3.88204L8.43695 3.89832L8.43125 3.91378C8.24622 4.39482 7.91163 4.80382 7.47748 5.08159L7.46364 5.09054L7.449 5.09949L7.16823 5.26144L7.15196 5.2712L7.13568 5.27934C6.62965 5.53956 6.0469 5.61208 5.49343 5.48523L5.47471 5.48116L5.45681 5.47628L4.44037 5.18819C4.12343 5.09871 3.94874 5.05072 3.82025 5.03032C3.79855 5.02689 3.78098 5.02577 3.76817 5.02462C3.75959 5.03453 3.7477 5.04779 3.73399 5.06612C3.65624 5.17013 3.56439 5.32598 3.40033 5.61056L2.98936 6.32508C2.83477 6.59363 2.75134 6.74064 2.7029 6.85242C2.69414 6.87266 2.68911 6.88875 2.685 6.90043C2.69143 6.91099 2.69994 6.92564 2.71267 6.94356C2.74782 6.99303 2.79345 7.04928 2.8559 7.12179L3.10166 7.39848L3.10248 7.40011L3.96185 8.36121L3.9765 8.3783L3.99115 8.3962C4.32347 8.81699 4.51198 9.45261 4.51198 10.0067C4.51198 10.561 4.32344 11.1962 3.99278 11.6164L3.97813 11.6351L3.96185 11.653L3.10166 12.6133C2.89536 12.843 2.78305 12.97 2.71267 13.0691C2.69998 13.0869 2.69146 13.1016 2.685 13.1122C2.68911 13.124 2.69389 13.1409 2.7029 13.1618C2.75093 13.273 2.83388 13.4199 2.98773 13.6867L3.39952 14.4012C3.56392 14.6864 3.65615 14.8432 3.73399 14.9473C3.74716 14.9649 3.75895 14.9774 3.76736 14.9872C3.78025 14.9861 3.79788 14.9858 3.82025 14.9823C3.94807 14.9621 4.12281 14.9143 4.43956 14.8244L5.45762 14.5372L5.47553 14.5323L5.49343 14.5282C5.97867 14.4171 6.48481 14.4592 6.94281 14.6454L7.13568 14.7333L7.16823 14.7512L7.44818 14.9131L7.46283 14.9213L7.47748 14.9302C7.91331 15.2087 8.24665 15.6203 8.43044 16.1013L8.43614 16.1159L8.44102 16.1314L8.71934 16.9615L8.72015 16.9631C8.81715 17.2541 8.87101 17.4132 8.92198 17.523C8.93088 17.5422 8.93965 17.5561 8.94558 17.5669C8.95741 17.5691 8.97317 17.5727 8.99359 17.5751C9.11321 17.5887 9.28063 17.5897 9.58685 17.5897H10.5162C10.8221 17.5897 10.9892 17.5887 11.1087 17.5751C11.1286 17.5728 11.1442 17.5691 11.1559 17.5669C11.1618 17.5562 11.1712 17.5425 11.1803 17.523C11.231 17.4136 11.2847 17.2549 11.3813 16.9639L11.3821 16.9615L11.6612 16.1306L11.6661 16.1159L11.6718 16.1021C11.8558 15.6192 12.1902 15.2084 12.6256 14.9302L12.6394 14.9213L12.6541 14.9131L12.934 14.7512L12.9503 14.7422L12.9674 14.7333C13.41 14.5067 13.91 14.4217 14.4013 14.49L14.6113 14.5282L14.6284 14.5323L14.6463 14.5372L15.6627 14.8244H15.6643C15.9804 14.9142 16.1548 14.9627 16.2828 14.9831C16.3036 14.9864 16.3207 14.9868 16.3333 14.988C16.3419 14.978 16.3553 14.9658 16.3691 14.9473C16.447 14.843 16.5384 14.6863 16.7027 14.4012L17.1129 13.6875L17.1137 13.6867C17.2681 13.4189 17.3519 13.2725 17.4002 13.161C17.409 13.1405 17.4132 13.1239 17.4173 13.1122C17.4108 13.1017 17.403 13.0868 17.3904 13.0691C17.32 12.97 17.2079 12.844 17.0014 12.6141L17.0006 12.6125L16.1412 11.653L16.1258 11.6351L16.1111 11.6164C15.7798 11.1956 15.5911 10.5615 15.5911 10.0067C15.5911 9.45254 15.7789 8.81726 16.1095 8.39702L16.1241 8.3783L16.1404 8.36039L17.0006 7.40011L17.0014 7.39848C17.2075 7.16952 17.3194 7.04314 17.3896 6.94438C17.4027 6.92595 17.4108 6.91032 17.4173 6.89962C17.4132 6.88799 17.4089 6.87174 17.4002 6.85161C17.352 6.74027 17.269 6.59341 17.1145 6.32508L16.7027 5.61218C16.5384 5.32674 16.4469 5.16938 16.3691 5.06531C16.3554 5.04696 16.3426 5.03451 16.3341 5.02462C16.3214 5.02577 16.3042 5.02692 16.2828 5.03032C16.1542 5.05083 15.9795 5.09853 15.6619 5.18819L14.6454 5.47547L14.6275 5.48035L14.6105 5.48442C14.0554 5.61253 13.4725 5.53958 12.9658 5.27771L12.9503 5.27039L12.9356 5.26144L12.6549 5.1003L12.6394 5.09135L12.6248 5.08159C12.191 4.80357 11.8573 4.39393 11.6726 3.91297L11.6661 3.8975L11.6612 3.88204L11.3829 3.05034C11.2858 2.7591 11.2311 2.59986 11.1803 2.49044C11.171 2.47049 11.1618 2.45641 11.1559 2.44568C11.1443 2.44355 11.1288 2.43986 11.1087 2.43754C10.9895 2.42385 10.8223 2.42289 10.5162 2.42289H9.58685Z" fill="var(--fill-0, #787E8C)"/>
</g>
</g>
</svg>
