<svg width="24" height="24" viewBox="0 0 24 24" fill="none" xmlns="http://www.w3.org/2000/svg">
<path d="M20.0996 18C20.0996 17.443 19.8792 16.9085 19.4854 16.5146C19.0915 16.1208 18.557 15.9004 18 15.9004C17.443 15.9004 16.9085 16.1208 16.5146 16.5146C16.1208 16.9085 15.9004 17.443 15.9004 18C15.9004 18.557 16.1208 19.0915 16.5146 19.4854C16.9085 19.8792 17.443 20.0996 18 20.0996C18.557 20.0996 19.0915 19.8792 19.4854 19.4854C19.8792 19.0915 20.0996 18.557 20.0996 18ZM8.09961 12C8.09961 11.443 7.87918 10.9085 7.48535 10.5146C7.09153 10.1208 6.55696 9.90039 6 9.90039C5.44305 9.90039 4.90847 10.1208 4.51465 10.5146C4.12082 10.9085 3.90039 11.443 3.90039 12C3.90039 12.557 4.12082 13.0915 4.51465 13.4854C4.90847 13.8792 5.44305 14.0996 6 14.0996C6.55695 14.0996 7.09153 13.8792 7.48535 13.4854C7.87918 13.0915 8.09961 12.557 8.09961 12ZM20.0996 6C20.0996 5.44305 19.8792 4.90847 19.4854 4.51465C19.0915 4.12082 18.557 3.90039 18 3.90039C17.443 3.90039 16.9085 4.12082 16.5146 4.51465C16.1208 4.90847 15.9004 5.44305 15.9004 6C15.9004 6.55695 16.1208 7.09153 16.5146 7.48535C16.9085 7.87918 17.443 8.09961 18 8.09961C18.557 8.09961 19.0915 7.87918 19.4854 7.48535C19.8792 7.09153 20.0996 6.55695 20.0996 6ZM21.9004 6C21.9004 7.03434 21.4892 8.02642 20.7578 8.75781C20.0264 9.4892 19.0343 9.90039 18 9.90039C16.9657 9.90039 15.9736 9.4892 15.2422 8.75781C15.1515 8.66707 15.0661 8.57198 14.9854 8.47363L9.80273 11.1436C9.86559 11.4226 9.90039 11.7094 9.90039 12C9.90039 12.2903 9.86545 12.5767 9.80273 12.8555L14.9854 15.5254C15.0659 15.4273 15.1516 15.3327 15.2422 15.2422C15.9736 14.5108 16.9657 14.0996 18 14.0996C19.0343 14.0996 20.0264 14.5108 20.7578 15.2422C21.4892 15.9736 21.9004 16.9657 21.9004 18C21.9004 19.0343 21.4892 20.0264 20.7578 20.7578C20.0264 21.4892 19.0343 21.9004 18 21.9004C16.9657 21.9004 15.9736 21.4892 15.2422 20.7578C14.5108 20.0264 14.0996 19.0343 14.0996 18C14.0996 17.7095 14.1335 17.4226 14.1963 17.1436L9.01367 14.4736C8.93309 14.5718 8.8484 14.6672 8.75781 14.7578C8.02642 15.4892 7.03434 15.9004 6 15.9004C4.96566 15.9004 3.97358 15.4892 3.24219 14.7578C2.5108 14.0264 2.09961 13.0343 2.09961 12C2.09961 10.9657 2.5108 9.97358 3.24219 9.24219C3.97358 8.5108 4.96566 8.09961 6 8.09961C7.03434 8.09961 8.02642 8.5108 8.75781 9.24219C8.84822 9.3326 8.93323 9.42743 9.01367 9.52539L14.1963 6.85547C14.1336 6.57677 14.0996 6.29019 14.0996 6C14.0996 4.96566 14.5108 3.97358 15.2422 3.24219C15.9736 2.5108 16.9657 2.09961 18 2.09961C19.0343 2.09961 20.0264 2.5108 20.7578 3.24219C21.4892 3.97358 21.9004 4.96566 21.9004 6Z" fill="#596072"/>
</svg>
