<svg width="24" height="24" viewBox="0 0 24 24" fill="none" xmlns="http://www.w3.org/2000/svg">
<path d="M3.82244 2C4.27647 2 4.64488 2.36842 4.64488 2.82244V12.9611L8.32535 9.95056L8.44934 9.86671C8.74933 9.70106 9.12814 9.73741 9.39221 9.97197L12.9603 13.1431L19.7227 7.22723C20.0644 6.92837 20.5843 6.96319 20.8832 7.30484C21.1821 7.64653 21.1472 8.16641 20.8056 8.46535L13.4982 14.8593C13.1865 15.132 12.7204 15.1299 12.4108 14.8549L8.82399 11.6668L4.64488 15.0859V19.3551H21.1776C21.6316 19.3551 22 19.7235 22 20.1776C22 20.6316 21.6316 21 21.1776 21H3.82244C3.36842 21 3 20.6316 3 20.1776V2.82244C3 2.36842 3.36842 2 3.82244 2Z" fill="#596072"/>
</svg>
