<svg width="20" height="20" viewBox="0 0 20 20" fill="none" xmlns="http://www.w3.org/2000/svg">
<path d="M16.6574 9.66953C16.5757 8.02203 15.8847 6.45881 14.7128 5.28688C13.4628 4.03685 11.7675 3.33409 9.99967 3.33409C9.12434 3.33409 8.25745 3.50711 7.44875 3.84209C6.64013 4.17706 5.90546 4.66798 5.28656 5.28688C4.66766 5.90579 4.17674 6.64045 3.84176 7.44907C3.50679 8.25777 3.33376 9.12467 3.33376 10L3.34196 10.3277C3.37953 11.0911 3.54866 11.8433 3.84176 12.5509C4.17674 13.3595 4.66766 14.0942 5.28656 14.7131C5.90546 15.332 6.64013 15.8229 7.44875 16.1579C8.25745 16.4929 9.12434 16.6659 9.99967 16.6659C11.7675 16.6659 13.4628 15.9631 14.7128 14.7131C15.9628 13.4631 16.6656 11.7678 16.6656 10L16.6574 9.66953ZM10.0416 12.8541C10.479 12.8543 10.8336 13.2086 10.8336 13.6461V13.729C10.8336 14.1665 10.479 14.5208 10.0416 14.521H9.9578C9.52037 14.5208 9.16575 14.1665 9.16575 13.729V13.6461C9.16575 13.2086 9.52037 12.8543 9.9578 12.8541H10.0416ZM9.20763 10.9322V6.27102C9.20763 5.83339 9.56204 5.47898 9.99967 5.47898C10.4373 5.47898 10.7917 5.83339 10.7917 6.27102V10.9322C10.7917 11.3699 10.4373 11.7243 9.99967 11.7243C9.56204 11.7243 9.20763 11.3699 9.20763 10.9322ZM18.2397 10.4088C18.1386 12.4481 17.2841 14.3832 15.8335 15.8338C14.2862 17.3811 12.1878 18.25 9.99967 18.25C8.91628 18.25 7.84336 18.0373 6.84242 17.6227C5.84144 17.2081 4.93198 16.5999 4.16586 15.8338C3.39975 15.0677 2.79156 14.1582 2.37694 13.1572C1.96236 12.1563 1.74967 11.0834 1.74967 10C1.74967 8.91661 1.96236 7.84368 2.37694 6.84275C2.79156 5.84177 3.39975 4.93231 4.16586 4.16619C4.93198 3.40007 5.84144 2.79188 6.84242 2.37726C7.84336 1.96269 8.91628 1.75 9.99967 1.75C12.1878 1.75 14.2862 2.61894 15.8335 4.16619C17.3807 5.71343 18.2497 7.81187 18.2497 10L18.2397 10.4088Z" fill="#FFF9F5"/>
</svg>
