<svg preserveAspectRatio="none" width="100%" height="100%" overflow="visible" style="display: block;" viewBox="0 0 20 20" fill="none" xmlns="http://www.w3.org/2000/svg">
<g id="Icons">
<g id="Vector">
<path fill-rule="evenodd" clip-rule="evenodd" d="M11.6667 1.74967C12.5373 1.74967 13.2503 2.46269 13.2503 3.33333V5.08301H16.6667C17.5373 5.08301 18.2503 5.79602 18.2503 6.66667V17.5C18.2503 17.9123 17.9123 18.2503 17.5 18.2503H2.5C2.08769 18.2503 1.74967 17.9123 1.74967 17.5V3.33333C1.74967 2.46269 2.46269 1.74967 3.33333 1.74967H11.6667ZM3.25033 3.25033V16.7497H16.7497V6.58366H12.5C12.0877 6.58366 11.7497 6.24564 11.7497 5.83333V3.25033H3.25033Z" fill="var(--fill-0, #787E8C)"/>
<path d="M13.3333 8.75C13.3333 8.51988 13.5199 8.33333 13.75 8.33333H14.5833C14.8135 8.33333 15 8.51988 15 8.75V9.58333C15 9.81345 14.8135 10 14.5833 10H13.75C13.5199 10 13.3333 9.81345 13.3333 9.58333V8.75ZM13.3333 12.0833C13.3333 11.8532 13.5199 11.6667 13.75 11.6667H14.5833C14.8135 11.6667 15 11.8532 15 12.0833V12.9167C15 13.1468 14.8135 13.3333 14.5833 13.3333H13.75C13.5199 13.3333 13.3333 13.1468 13.3333 12.9167V12.0833ZM8.33333 5.41667C8.33333 5.18655 8.14679 5 7.91667 5H7.08333C6.85321 5 6.66667 5.18655 6.66667 5.41667V6.66667H5.41667C5.18655 6.66667 5 6.85321 5 7.08333V7.91667C5 8.14679 5.18655 8.33333 5.41667 8.33333H6.66667V9.58333C6.66667 9.81345 6.85321 10 7.08333 10H7.91667C8.14679 10 8.33333 9.81345 8.33333 9.58333V8.33333H9.58333C9.81345 8.33333 10 8.14679 10 7.91667V7.08333C10 6.85321 9.81345 6.66667 9.58333 6.66667H8.33333V5.41667Z" fill="var(--fill-0, #787E8C)"/>
<path d="M6.95801 16.792H8.04199V13.208H6.95801V16.792ZM9.45801 18.208H5.54199V12.583C5.54217 12.146 5.89604 11.7922 6.33301 11.792H8.66699C9.10396 11.7922 9.45783 12.146 9.45801 12.583V18.208Z" fill="var(--fill-0, #787E8C)"/>
</g>
</g>
</svg>
