<svg width="24" height="24" viewBox="0 0 24 24" fill="none" xmlns="http://www.w3.org/2000/svg">
<path d="M9.5 3H7.83333C7.3731 3 7 3.40294 7 3.9V5.7C7 6.19706 7.3731 6.6 7.83333 6.6H9.5C9.96024 6.6 10.3333 6.19706 10.3333 5.7V3.9C10.3333 3.40294 9.96024 3 9.5 3Z" fill="#596072"/>
<path d="M16.1667 3H14.5C14.0398 3 13.6667 3.40294 13.6667 3.9V5.7C13.6667 6.19706 14.0398 6.6 14.5 6.6H16.1667C16.6269 6.6 17 6.19706 17 5.7V3.9C17 3.40294 16.6269 3 16.1667 3Z" fill="#596072"/>
<path d="M9.5 10.2H7.83333C7.3731 10.2 7 10.6029 7 11.1V12.9C7 13.3971 7.3731 13.8 7.83333 13.8H9.5C9.96024 13.8 10.3333 13.3971 10.3333 12.9V11.1C10.3333 10.6029 9.96024 10.2 9.5 10.2Z" fill="#596072"/>
<path d="M16.1667 10.2H14.5C14.0398 10.2 13.6667 10.6029 13.6667 11.1V12.9C13.6667 13.3971 14.0398 13.8 14.5 13.8H16.1667C16.6269 13.8 17 13.3971 17 12.9V11.1C17 10.6029 16.6269 10.2 16.1667 10.2Z" fill="#596072"/>
<path d="M9.5 17.4H7.83333C7.3731 17.4 7 17.8029 7 18.3V20.1C7 20.5971 7.3731 21 7.83333 21H9.5C9.96024 21 10.3333 20.5971 10.3333 20.1V18.3C10.3333 17.8029 9.96024 17.4 9.5 17.4Z" fill="#596072"/>
<path d="M16.1667 17.4H14.5C14.0398 17.4 13.6667 17.8029 13.6667 18.3V20.1C13.6667 20.5971 14.0398 21 14.5 21H16.1667C16.6269 21 17 20.5971 17 20.1V18.3C17 17.8029 16.6269 17.4 16.1667 17.4Z" fill="#596072"/>
</svg>
