<svg preserveAspectRatio="none" width="100%" height="100%" overflow="visible" style="display: block;" viewBox="0 0 24 24" fill="none" xmlns="http://www.w3.org/2000/svg">
  <path d="M12 15.7734C12.497 15.7734 12.9003 16.1759 12.9004 16.6729V17C12.9004 17.4971 12.4971 17.9004 12 17.9004C11.5029 17.9004 11.0996 17.4971 11.0996 17V16.6729C11.0997 16.1759 11.503 15.7734 12 15.7734Z" fill="#596072"/>
  <path d="M12 6.09961C12.9064 6.09961 13.8577 6.35509 14.6055 6.9209C15.3784 7.5058 15.9004 8.40308 15.9004 9.55371C15.9004 10.3957 15.6451 11.0415 15.2256 11.5498C14.8395 12.0175 14.3395 12.3301 13.9863 12.5566C13.5896 12.8112 13.3395 12.9797 13.1631 13.1934C13.0201 13.3666 12.9004 13.6034 12.9004 14.0439C12.9002 14.5408 12.4969 14.9434 12 14.9434C11.5031 14.9434 11.0998 14.5408 11.0996 14.0439C11.0996 13.202 11.3549 12.5561 11.7744 12.0479C12.1604 11.5802 12.6605 11.2676 13.0137 11.041C13.4103 10.7866 13.6605 10.6179 13.8369 10.4043C13.9799 10.2311 14.0996 9.99422 14.0996 9.55371C14.0996 9.00202 13.8714 8.62277 13.5195 8.35645C13.1423 8.07097 12.5936 7.90039 12 7.90039C11.4064 7.90039 10.8577 8.07097 10.4805 8.35645C10.1286 8.62277 9.90042 9.00202 9.90039 9.55371C9.90039 10.0508 9.49706 10.4541 9 10.4541C8.50294 10.4541 8.09961 10.0508 8.09961 9.55371C8.09965 8.40308 8.62155 7.5058 9.39453 6.9209C10.1423 6.35509 11.0936 6.09961 12 6.09961Z" fill="#596072"/>
  <path fill-rule="evenodd" clip-rule="evenodd" d="M12 2.09961C14.6256 2.09961 17.1434 3.14339 19 5C20.8566 6.85661 21.9004 9.37436 21.9004 12C21.9004 13.2999 21.6439 14.5871 21.1465 15.7881C20.649 16.9892 19.9193 18.0807 19 19C18.0807 19.9193 16.9892 20.649 15.7881 21.1465C14.5871 21.6439 13.2999 21.9004 12 21.9004C10.7001 21.9004 9.41291 21.6439 8.21191 21.1465C7.01079 20.649 5.9193 19.9193 5 19C4.0807 18.0807 3.35104 16.9892 2.85352 15.7881C2.35611 14.5871 2.09961 13.2999 2.09961 12C2.09961 9.37436 3.14339 6.85661 5 5C6.85661 3.14339 9.37436 2.09961 12 2.09961ZM12 3.90039C9.85175 3.90039 7.79151 4.75342 6.27246 6.27246C4.75342 7.79151 3.90039 9.85175 3.90039 12C3.90039 13.0637 4.10957 14.1169 4.5166 15.0996C4.92366 16.0823 5.52031 16.9754 6.27246 17.7275C7.02462 18.4797 7.91765 19.0763 8.90039 19.4834C9.8831 19.8904 10.9363 20.0996 12 20.0996C13.0637 20.0996 14.1169 19.8904 15.0996 19.4834C16.0823 19.0763 16.9754 18.4797 17.7275 17.7275C18.4797 16.9754 19.0763 16.0823 19.4834 15.0996C19.8904 14.1169 20.0996 13.0637 20.0996 12C20.0996 9.85175 19.2466 7.79151 17.7275 6.27246C16.2085 4.75342 14.1483 3.90039 12 3.90039Z" fill="#596072"/>
</svg>
