<svg width="24" height="24" viewBox="0 0 24 24" fill="none" xmlns="http://www.w3.org/2000/svg">
<path fill-rule="evenodd" clip-rule="evenodd" d="M14.2773 7.5C14.5426 7.5 14.7978 7.60543 14.9854 7.79297C15.1727 7.98048 15.2773 8.23491 15.2773 8.5V9.72266H16.5C16.7651 9.72266 17.0195 9.82728 17.207 10.0146C17.3946 10.2022 17.5 10.4574 17.5 10.7227V13.2773C17.5 13.5426 17.3946 13.7978 17.207 13.9854C17.0195 14.1727 16.7651 14.2773 16.5 14.2773H15.2773V15.5C15.2773 15.7651 15.1727 16.0195 14.9854 16.207C14.7978 16.3946 14.5426 16.5 14.2773 16.5H11.7227C11.4574 16.5 11.2022 16.3946 11.0146 16.207C10.8273 16.0195 10.7227 15.7651 10.7227 15.5V14.2773H9.5C9.23491 14.2773 8.98048 14.1727 8.79297 13.9854C8.60543 13.7978 8.5 13.5426 8.5 13.2773V10.7227C8.5 10.4574 8.60543 10.2022 8.79297 10.0146C8.98048 9.82728 9.23491 9.72266 9.5 9.72266H10.7227V8.5C10.7227 8.23491 10.8273 7.98048 11.0146 7.79297C11.2022 7.60543 11.4574 7.5 11.7227 7.5H14.2773ZM12.2773 10.5C12.2773 10.9295 11.9295 11.2773 11.5 11.2773H10.0557V12.7227H11.5C11.9295 12.7227 12.2773 13.0705 12.2773 13.5V14.9443H13.7227V13.5C13.7227 13.0705 14.0705 12.7227 14.5 12.7227H15.9443V11.2773H14.5C14.0705 11.2773 13.7227 10.9295 13.7227 10.5V9.05566H12.2773V10.5Z" fill="#596072"/>
<path fill-rule="evenodd" clip-rule="evenodd" d="M19.2998 2.2998C20.3491 2.2998 21.2002 3.15085 21.2002 4.2002V19.7998C21.2002 20.8491 20.3491 21.7002 19.2998 21.7002H6.7002C5.65085 21.7002 4.7998 20.8491 4.7998 19.7998V18.8496H3.5C3.03056 18.8496 2.65039 18.4694 2.65039 18C2.65039 17.5306 3.03056 17.1504 3.5 17.1504H4.7998V14.8496H3.5C3.03056 14.8496 2.65039 14.4694 2.65039 14C2.65039 13.5306 3.03056 13.1504 3.5 13.1504H4.7998V10.8496H3.5C3.03056 10.8496 2.65039 10.4694 2.65039 10C2.65039 9.53056 3.03056 9.15039 3.5 9.15039H4.7998V6.84961H3.5C3.03056 6.84961 2.65039 6.46944 2.65039 6C2.65039 5.53056 3.03056 5.15039 3.5 5.15039H4.7998V4.2002C4.7998 3.15085 5.65086 2.2998 6.7002 2.2998H19.2998ZM6.66016 4.00391C6.56878 4.02237 6.5 4.10338 6.5 4.2002V19.7998C6.5 19.8966 6.56878 19.9776 6.66016 19.9961L6.7002 20H19.2998C19.4103 20 19.5 19.9103 19.5 19.7998V4.2002C19.5 4.08974 19.4103 4 19.2998 4H6.7002L6.66016 4.00391Z" fill="#596072"/>
</svg>
