<svg preserveAspectRatio="none" width="100%" height="100%" overflow="visible" style="display: block;" viewBox="0 0 20 20" fill="none" xmlns="http://www.w3.org/2000/svg">
<g id="Icons">
<path id="Vector" fill-rule="evenodd" clip-rule="evenodd" d="M4.02083 9.16667H6.8375C6.93833 9.16667 7.10417 9.16667 7.25583 9.18C7.44333 9.19667 7.76333 9.24333 8.10167 9.4325C8.43702 9.62027 8.7139 9.89714 8.90167 10.2325C9.09 10.57 9.13667 10.89 9.15333 11.0775C9.1675 11.23 9.16667 11.395 9.16667 11.4958V16.0042C9.16667 16.105 9.16667 16.2708 9.15333 16.4225C9.13667 16.61 9.09083 16.93 8.90083 17.2683C8.71307 17.6037 8.43619 17.8806 8.10083 18.0683C7.84035 18.2115 7.55223 18.2974 7.25583 18.32C7.10333 18.3333 6.93833 18.3333 6.8375 18.3333H3.99583C3.89583 18.3333 3.72917 18.3333 3.5775 18.32C3.28104 18.2971 2.99292 18.211 2.7325 18.0675C2.39714 17.8797 2.12027 17.6029 1.9325 17.2675C1.789 17.0071 1.7029 16.719 1.68 16.4225C1.66667 16.27 1.66667 16.105 1.66667 16.0042V11.4958C1.66667 11.3958 1.66667 11.2292 1.68 11.0775C1.69667 10.89 1.74333 10.57 1.9325 10.2325C2.12027 9.89714 2.39714 9.62027 2.7325 9.4325C2.99292 9.289 3.28104 9.2029 3.5775 9.18C3.73 9.16667 3.895 9.16667 3.99583 9.16667H4.02083ZM3.38667 11.0467C3.33333 11.1417 3.33333 11.2667 3.33333 11.5217V15.98C3.33333 16.2325 3.33333 16.3592 3.38667 16.4533C3.42422 16.5204 3.4796 16.5758 3.54667 16.6133C3.64167 16.6667 3.7675 16.6667 4.02083 16.6667H6.8125C7.06583 16.6667 7.1925 16.6667 7.2875 16.6133C7.35426 16.5757 7.40934 16.5203 7.44667 16.4533C7.5 16.3592 7.5 16.2333 7.5 15.9792V11.5208C7.5 11.2675 7.5 11.1417 7.44667 11.0458C7.40899 10.9791 7.35363 10.924 7.28667 10.8867C7.1925 10.8333 7.06667 10.8333 6.8125 10.8333H4.02083C3.7675 10.8333 3.64167 10.8333 3.54583 10.8867C3.47907 10.9243 3.42399 10.9797 3.38667 11.0467ZM4.02083 1.66667H6.8375C6.93833 1.66667 7.10417 1.66667 7.25583 1.68C7.44333 1.69667 7.76333 1.74333 8.10167 1.9325C8.43702 2.12027 8.7139 2.39714 8.90167 2.7325C9.09 3.07 9.13667 3.39 9.15333 3.5775C9.1675 3.73 9.16667 3.895 9.16667 3.99583V6.00417C9.16667 6.105 9.16667 6.27083 9.15333 6.4225C9.13667 6.61 9.09083 6.93 8.90083 7.26833C8.71307 7.60369 8.43619 7.88057 8.10083 8.06833C7.84035 8.21155 7.55223 8.29736 7.25583 8.32C7.10333 8.33417 6.93833 8.33333 6.8375 8.33333H3.99583C3.89583 8.33333 3.72917 8.33333 3.5775 8.32C3.28104 8.2971 2.99292 8.211 2.7325 8.0675C2.39714 7.87973 2.12027 7.60285 1.9325 7.2675C1.789 7.00708 1.7029 6.71896 1.68 6.4225C1.66667 6.27 1.66667 6.105 1.66667 6.00417V3.99583C1.66667 3.89583 1.66667 3.72917 1.68 3.5775C1.69667 3.39 1.74333 3.07 1.9325 2.7325C2.12027 2.39714 2.39714 2.12027 2.7325 1.9325C2.99292 1.789 3.28104 1.7029 3.5775 1.68C3.73 1.66667 3.895 1.66667 3.99583 1.66667H4.02083ZM3.38667 3.54667C3.33333 3.64167 3.33333 3.76667 3.33333 4.02083V5.97917C3.33333 6.2325 3.33333 6.35917 3.38667 6.45417C3.42434 6.52093 3.47971 6.57601 3.54667 6.61333C3.64167 6.66667 3.76667 6.66667 4.02083 6.66667H6.8125C7.06583 6.66667 7.1925 6.66667 7.2875 6.61333C7.35426 6.57566 7.40934 6.52029 7.44667 6.45333C7.5 6.35917 7.5 6.23333 7.5 5.97917V4.02083C7.5 3.7675 7.5 3.64167 7.44667 3.54583C7.40899 3.47907 7.35363 3.42399 7.28667 3.38667C7.1925 3.33333 7.06667 3.33333 6.8125 3.33333H4.02083C3.7675 3.33333 3.64167 3.33333 3.54583 3.38667C3.47907 3.42434 3.42399 3.47971 3.38667 3.54667ZM13.1875 10.8333H16.0042C16.105 10.8333 16.2708 10.8333 16.4225 10.82C16.61 10.8033 16.93 10.7575 17.2683 10.5675C17.6037 10.3797 17.8806 10.1029 18.0683 9.7675C18.2575 9.43 18.3033 9.11 18.32 8.9225C18.3333 8.77 18.3333 8.605 18.3333 8.50417V3.99583C18.3333 3.89583 18.3333 3.72917 18.32 3.5775C18.2971 3.28104 18.211 2.99292 18.0675 2.7325C17.8797 2.39714 17.6029 2.12027 17.2675 1.9325C17.0071 1.789 16.719 1.7029 16.4225 1.68C16.27 1.66667 16.105 1.66667 16.0042 1.66667H13.1625C13.0625 1.66667 12.8958 1.66667 12.7442 1.68C12.5567 1.69667 12.2367 1.74333 11.8992 1.9325C11.5638 2.12027 11.2869 2.39714 11.0992 2.7325C10.9557 2.99292 10.8696 3.28104 10.8467 3.5775C10.8333 3.73 10.8333 3.895 10.8333 3.99583V8.50417C10.8333 8.605 10.8333 8.77083 10.8467 8.9225C10.8633 9.11 10.91 9.43 11.0992 9.76833C11.2869 10.1037 11.5638 10.3806 11.8992 10.5683C12.2367 10.7567 12.5567 10.8033 12.7442 10.82C12.8967 10.8342 13.0617 10.8333 13.1625 10.8333H13.1875ZM12.5533 8.95333C12.5 8.85833 12.5 8.73333 12.5 8.47917V4.02083C12.5 3.7675 12.5 3.64167 12.5533 3.54583C12.591 3.47907 12.6464 3.42399 12.7133 3.38667C12.8083 3.33333 12.9333 3.33333 13.1883 3.33333H15.98C16.2325 3.33333 16.3592 3.33333 16.4533 3.38667C16.5204 3.42422 16.5758 3.4796 16.6133 3.54667C16.6667 3.64167 16.6667 3.7675 16.6667 4.02083V8.47917C16.6667 8.7325 16.6667 8.85833 16.6133 8.95417C16.5757 9.02093 16.5203 9.07601 16.4533 9.11333C16.3592 9.16667 16.2325 9.16667 15.9792 9.16667H13.1875C12.9342 9.16667 12.8083 9.16667 12.7125 9.11333C12.6457 9.07566 12.5907 9.02029 12.5533 8.95333ZM13.1875 18.3333H16.0042C16.105 18.3333 16.2708 18.3333 16.4225 18.32C16.61 18.3033 16.93 18.2567 17.2683 18.0675C17.6037 17.8797 17.8806 17.6029 18.0683 17.2675C18.2575 16.93 18.3033 16.61 18.32 16.4225C18.3333 16.27 18.3333 16.105 18.3333 16.0042V13.9958C18.3333 13.8958 18.3333 13.7292 18.32 13.5775C18.2971 13.281 18.211 12.9929 18.0675 12.7325C17.8797 12.3971 17.6029 12.1203 17.2675 11.9325C17.0071 11.789 16.719 11.7029 16.4225 11.68C16.27 11.6667 16.105 11.6667 16.0042 11.6667H13.1625C13.0625 11.6667 12.8958 11.6667 12.7442 11.68C12.5567 11.6967 12.2367 11.7433 11.8992 11.9325C11.5638 12.1203 11.2869 12.3971 11.0992 12.7325C10.9557 12.9929 10.8696 13.281 10.8467 13.5775C10.8333 13.73 10.8333 13.895 10.8333 13.9958V16.0042C10.8333 16.105 10.8333 16.2708 10.8467 16.4225C10.8633 16.61 10.91 16.93 11.0992 17.2683C11.2869 17.6037 11.5638 17.8806 11.8992 18.0683C12.2367 18.2575 12.5567 18.3033 12.7442 18.32C12.8967 18.3333 13.0617 18.3333 13.1625 18.3333H13.1875ZM12.5533 16.4533C12.5 16.3592 12.5 16.2333 12.5 15.9792V14.0208C12.5 13.7675 12.5 13.6417 12.5533 13.5458C12.591 13.4791 12.6464 13.424 12.7133 13.3867C12.8083 13.3333 12.9342 13.3333 13.1883 13.3333H15.98C16.2325 13.3333 16.3592 13.3333 16.4533 13.3867C16.52 13.4242 16.5758 13.4792 16.6133 13.5467C16.6667 13.6417 16.6667 13.7675 16.6667 14.0217V15.98C16.6667 16.2325 16.6667 16.3592 16.6133 16.4533C16.5758 16.5204 16.5204 16.5758 16.4533 16.6133C16.3592 16.6667 16.2325 16.6667 15.9792 16.6667H13.1875C12.9342 16.6667 12.8083 16.6667 12.7125 16.6133C12.6457 16.5757 12.5907 16.5203 12.5533 16.4533Z" fill="var(--fill-0, white)"/>
</g>
</svg>
