<svg preserveAspectRatio="none" width="100%" height="100%" overflow="visible" style="display: block;" viewBox="0 0 20 20" fill="none" xmlns="http://www.w3.org/2000/svg">
<g id="Icons">
<path id="Vector" fill-rule="evenodd" clip-rule="evenodd" d="M7.66602 2.20866C8.25141 2.20866 8.8309 2.32403 9.37174 2.54801C9.9006 2.76707 10.382 3.08613 10.7902 3.48714C10.8522 3.429 10.9256 3.38095 11.0091 3.34717C11.5082 3.14549 12.0429 3.04202 12.5822 3.04199C13.1215 3.04199 13.6561 3.1455 14.1553 3.34717C14.6545 3.54887 15.1093 3.84518 15.4932 4.21956C15.8769 4.59396 16.1829 5.03913 16.3916 5.5306C16.6004 6.02225 16.7074 6.5501 16.7074 7.08333C16.7074 8.16092 16.2686 9.19059 15.4932 9.9471C15.3655 10.0716 15.2293 10.1854 15.0879 10.2913C15.8291 10.6834 16.4544 11.2562 16.9507 11.9621C17.9041 13.3182 18.374 15.139 18.374 17.0833C18.374 17.4745 18.0572 17.7913 17.666 17.7913H13.3805C13.3294 17.7913 13.2797 17.7853 13.2316 17.7751C13.1836 17.7854 13.1338 17.7913 13.0827 17.7913H2.24935C1.85815 17.7913 1.54134 17.4745 1.54134 17.0833C1.54134 14.1649 2.92886 11.5039 5.13428 10.3353C4.9138 10.1832 4.7054 10.0114 4.51335 9.81934C3.67725 8.98324 3.20801 7.84909 3.20801 6.66667C3.20801 6.08127 3.32337 5.50178 3.54736 4.96094C3.77142 4.42003 4.09935 3.92799 4.51335 3.514C4.92734 3.1 5.41938 2.77207 5.96029 2.54801C6.50113 2.32403 7.08062 2.20866 7.66602 2.20866ZM8.72721 13.632C8.14146 14.2177 7.19222 14.2177 6.60645 13.632L5.06429 12.0898C3.94294 13.0118 3.15223 14.5317 2.98991 16.3753H12.3478C12.2406 14.9471 11.8079 13.7064 11.1165 12.7987C10.89 12.5012 10.6327 12.2379 10.3467 12.0117L8.72721 13.632ZM11.2191 10.8968C11.6002 11.1974 11.9437 11.5463 12.2437 11.9401C13.1522 13.133 13.6574 14.6893 13.7671 16.3753H16.9328C16.8336 14.9362 16.4319 13.6872 15.7918 12.7767C15.0639 11.7414 14.0218 11.1247 12.666 11.1247C12.6562 11.1247 12.6464 11.1234 12.6367 11.123C12.6186 11.1233 12.6003 11.1247 12.5822 11.1247C12.114 11.1246 11.6537 11.0459 11.2191 10.8968ZM7.66602 11.1247C7.1745 11.1247 6.69907 11.2182 6.25081 11.3916L7.54883 12.6896C7.6139 12.7546 7.71978 12.7546 7.78483 12.6896L9.12272 11.3509C8.68174 11.2044 8.19656 11.1247 7.66602 11.1247ZM7.66602 3.62467C7.26665 3.62467 6.87126 3.7038 6.50228 3.85661C6.13325 4.00947 5.79758 4.23334 5.51514 4.51579C5.23269 4.79823 5.00881 5.1339 4.85596 5.50293C4.70315 5.87191 4.62402 6.2673 4.62402 6.66667C4.62402 7.47337 4.94471 8.24712 5.51514 8.81755C6.08556 9.38797 6.85932 9.70866 7.66602 9.70866C8.37602 9.70866 9.06007 9.4597 9.60286 9.01123C9.62006 8.98872 9.63875 8.96693 9.65902 8.94613C9.70052 8.90358 9.74652 8.86777 9.79492 8.83789C9.80204 8.83091 9.80984 8.8246 9.81689 8.81755C10.3873 8.24712 10.708 7.47337 10.708 6.66667C10.708 6.2673 10.6289 5.87191 10.4761 5.50293C10.3232 5.1339 10.0993 4.79823 9.81689 4.51579C9.53445 4.23334 9.19878 4.00947 8.82975 3.85661C8.46078 3.7038 8.06538 3.62467 7.66602 3.62467ZM12.5822 4.45801C12.256 4.45804 11.9328 4.51543 11.6284 4.62647C11.6847 4.73578 11.7375 4.84701 11.7847 4.96094C12.0087 5.50178 12.124 6.08127 12.124 6.66667C12.124 7.64164 11.8038 8.58291 11.2231 9.35221C11.6317 9.58231 12.0992 9.70862 12.5822 9.70866C13.3061 9.70866 13.9969 9.42731 14.5036 8.93311C15.0097 8.43939 15.2913 7.77377 15.2913 7.08333C15.2913 6.74113 15.2217 6.40195 15.0871 6.0848C14.9524 5.76759 14.7543 5.47813 14.5036 5.23356C14.2529 4.98905 13.9545 4.79392 13.6247 4.66064C13.2948 4.52737 12.9403 4.45801 12.5822 4.45801Z" fill="var(--fill-0, #787E8C)"/>
</g>
</svg>
