<svg width="24" height="24" viewBox="0 0 24 24" fill="none" xmlns="http://www.w3.org/2000/svg">
<path d="M20.0996 12C20.0996 9.85175 19.2466 7.79151 17.7275 6.27246C16.2085 4.75342 14.1483 3.90039 12 3.90039C9.85175 3.90039 7.79151 4.75342 6.27246 6.27246C4.75342 7.79151 3.90039 9.85175 3.90039 12C3.90039 14.1483 4.75342 16.2085 6.27246 17.7275C7.79151 19.2466 9.85175 20.0996 12 20.0996C14.1483 20.0996 16.2085 19.2466 17.7275 17.7275C19.2466 16.2085 20.0996 14.1483 20.0996 12ZM21.9004 12C21.9004 14.6256 20.8566 17.1434 19 19C17.1434 20.8566 14.6256 21.9004 12 21.9004C9.37436 21.9004 6.85661 20.8566 5 19C3.14339 17.1434 2.09961 14.6256 2.09961 12C2.09961 9.37436 3.14339 6.85661 5 5C6.85661 3.14339 9.37436 2.09961 12 2.09961C14.6256 2.09961 17.1434 3.14339 19 5C20.8566 6.85661 21.9004 9.37436 21.9004 12Z" fill="#596072"/>
<path d="M11.1003 18.1575V17.5716C10.5126 17.4507 9.95928 17.1835 9.49579 16.7864C8.78547 16.1779 8.34231 15.315 8.26141 14.3831C8.21849 13.8881 8.58478 13.4516 9.07977 13.4085C9.57485 13.3656 10.0113 13.7319 10.0544 14.2269C10.0944 14.6891 10.3144 15.1174 10.6667 15.4193C11.0191 15.7212 11.4762 15.8734 11.9391 15.8421L11.9997 15.8402C12.9715 15.8402 13.4069 15.566 13.613 15.3382C13.8355 15.0921 13.9421 14.7327 13.9421 14.305C13.9421 13.7533 13.4695 12.9027 11.9997 12.9027C10.9587 12.9026 10.0091 12.7015 9.30731 12.1419C8.56593 11.5507 8.2575 10.6886 8.2575 9.72882C8.25751 9.71384 8.2587 9.69887 8.25946 9.6839C8.28323 9.2118 8.40197 8.74944 8.60907 8.32453C8.81617 7.8996 9.10732 7.52084 9.46454 7.21125C9.82163 6.90182 10.2374 6.66735 10.6872 6.52277C10.8227 6.47921 10.961 6.44496 11.1003 6.41828V5.84211C11.1003 5.34515 11.5028 4.94188 11.9997 4.94171C12.4967 4.94171 12.9001 5.34505 12.9001 5.84211V6.44953C13.4873 6.57888 14.0389 6.85202 14.5007 7.25226C15.2028 7.86083 15.6456 8.71541 15.738 9.63996C15.7872 10.1344 15.4258 10.5749 14.9313 10.6243C14.4368 10.6736 13.9964 10.3132 13.947 9.81867C13.9003 9.35169 13.6765 8.92005 13.322 8.61261C12.9672 8.30516 12.5078 8.14516 12.0388 8.16535C11.9982 8.16709 11.9571 8.16616 11.9167 8.16242C11.6878 8.14128 11.4568 8.16632 11.238 8.23664C11.0191 8.30698 10.817 8.42107 10.6432 8.5716C10.4696 8.7221 10.328 8.90608 10.2272 9.11261C10.1303 9.31151 10.0728 9.52774 10.0583 9.74835C10.062 10.3009 10.2257 10.5723 10.4294 10.7347C10.6749 10.9304 11.1464 11.1028 11.9997 11.1028C14.3194 11.1028 15.7419 12.6209 15.7419 14.305C15.7419 14.9951 15.5733 15.8535 14.9479 16.5452C14.4615 17.0831 13.7775 17.4331 12.9001 17.5716V18.1575C12.9001 18.6546 12.4967 19.0579 11.9997 19.0579C11.5028 19.0578 11.1003 18.6545 11.1003 18.1575Z" fill="#596072"/>
</svg>
