<svg preserveAspectRatio="none" width="100%" height="100%" overflow="visible" style="display: block;" viewBox="0 0 24 24" fill="none" xmlns="http://www.w3.org/2000/svg">
  <path d="M18.25 10.2002C18.25 8.54261 17.5921 6.95238 16.4199 5.78027C15.2478 4.6082 13.6577 3.9502 12 3.9502C10.3423 3.9502 8.75224 4.6082 7.58008 5.78027C6.40791 6.95238 5.75 8.54261 5.75 10.2002V12.6865C5.75 12.8339 5.7153 12.9795 5.64941 13.1113L3.98047 16.4502H20.0195L18.3506 13.1123C18.2847 12.9804 18.25 12.8349 18.25 12.6875V10.2002ZM9.52832 18.3496C9.66014 18.6927 9.86111 19.0085 10.126 19.2734C10.623 19.7704 11.2971 20.0498 12 20.0498C12.7029 20.0498 13.377 19.7704 13.874 19.2734C14.1389 19.0085 14.3399 18.6927 14.4717 18.3496H9.52832ZM20.1504 12.4639L21.7549 15.6729C21.8958 15.9548 21.9624 16.2682 21.9482 16.583C21.9341 16.8979 21.8395 17.2045 21.6738 17.4727C21.5081 17.7407 21.2762 17.9617 21.001 18.1152C20.7946 18.2304 20.5689 18.305 20.3359 18.335L20.1006 18.3496H16.4492C16.2673 19.2019 15.8435 19.9914 15.2178 20.6172C14.3644 21.4705 13.2068 21.9502 12 21.9502C10.7932 21.9502 9.63556 21.4705 8.78223 20.6172C8.15652 19.9914 7.73273 19.2019 7.55078 18.3496H3.89941C3.58427 18.3494 3.27425 18.2688 2.99902 18.1152C2.72381 17.9617 2.49186 17.7407 2.32617 17.4727C2.16048 17.2045 2.06594 16.8979 2.05176 16.583C2.03762 16.2682 2.10424 15.9548 2.24512 15.6729L3.84961 12.4629V10.2002C3.84961 8.03866 4.70881 5.96592 6.2373 4.4375C7.7658 2.9091 9.83841 2.0498 12 2.0498C14.1616 2.0498 16.2342 2.9091 17.7627 4.4375C19.2912 5.96592 20.1504 8.03866 20.1504 10.2002V12.4639Z" fill="#596072"/>
  <circle cx="18" cy="6" r="4" fill="#FF7B03"/>
</svg>
