<svg width="24" height="24" viewBox="0 0 24 24" fill="none" xmlns="http://www.w3.org/2000/svg">
<path d="M12 13.5996C12.4971 13.5996 12.9004 14.0029 12.9004 14.5C12.9004 14.9971 12.4971 15.4004 12 15.4004C11.5029 15.4004 11.0996 14.9971 11.0996 14.5C11.0996 14.0029 11.5029 13.5996 12 13.5996Z" fill="#596072"/>
<path d="M12 6.59961C12.4971 6.59961 12.9004 7.00294 12.9004 7.5V11.5C12.9004 11.9971 12.4971 12.4004 12 12.4004C11.5029 12.4004 11.0996 11.9971 11.0996 11.5V7.5C11.0996 7.00294 11.5029 6.59961 12 6.59961Z" fill="#596072"/>
<path fill-rule="evenodd" clip-rule="evenodd" d="M19 3.09961C19.7691 3.09961 20.5069 3.40536 21.0508 3.94922C21.5946 4.49307 21.9004 5.23087 21.9004 6V16C21.9004 16.7691 21.5946 17.5069 21.0508 18.0508C20.5069 18.5946 19.7691 18.9004 19 18.9004H7.66699C7.42899 18.9004 7.19724 18.9773 7.00684 19.1201L3.54004 21.7197C3.26733 21.9242 2.90255 21.9571 2.59766 21.8047C2.29276 21.6522 2.09961 21.3409 2.09961 21V6C2.09961 5.23087 2.40536 4.49307 2.94922 3.94922C3.49307 3.40536 4.23087 3.09961 5 3.09961H19ZM5 4.90039C4.70826 4.90039 4.42895 5.01637 4.22266 5.22266C4.01637 5.42895 3.90039 5.70826 3.90039 6V19.1992L5.92676 17.6797C6.42874 17.3032 7.03952 17.0996 7.66699 17.0996H19C19.2917 17.0996 19.5711 16.9836 19.7773 16.7773C19.9836 16.5711 20.0996 16.2917 20.0996 16V6C20.0996 5.70826 19.9836 5.42895 19.7773 5.22266C19.5968 5.04207 19.3603 4.93021 19.1084 4.90527L19 4.90039H5Z" fill="#596072"/>
</svg>
