<svg width="24" height="24" viewBox="0 0 24 24" fill="none" xmlns="http://www.w3.org/2000/svg">
<path d="M18.1523 14.376C18.4419 14.0798 18.9177 14.0747 19.2139 14.3643C19.5097 14.6538 19.515 15.1287 19.2256 15.4248L16.292 18.4248C16.1509 18.5691 15.9576 18.6504 15.7559 18.6504C15.5541 18.6504 15.3608 18.569 15.2197 18.4248L13.7529 16.9248C13.4634 16.6287 13.4686 16.1539 13.7646 15.8643C14.0608 15.5747 14.5356 15.5799 14.8252 15.876L15.7549 16.8271L18.1523 14.376Z" fill="#596072"/>
<path fill-rule="evenodd" clip-rule="evenodd" d="M9.90039 2C10.5438 2 11.181 2.12687 11.7754 2.37305C12.3699 2.61929 12.9102 2.98054 13.3652 3.43555C13.8202 3.89055 14.1815 4.43089 14.4277 5.02539C14.6739 5.61982 14.8008 6.257 14.8008 6.90039C14.8008 8.19995 14.2842 9.44631 13.3652 10.3652C13.2735 10.457 13.1771 10.5433 13.0791 10.627C13.3607 10.7644 13.5788 10.9015 13.7354 11.0146C13.7886 11.0531 13.8337 11.0903 13.873 11.1221C13.9677 11.0767 14.0639 11.0344 14.1611 10.9941C14.8707 10.7002 15.6314 10.5501 16.3994 10.5508C17.1681 10.5498 17.9295 10.7 18.6396 10.9941C19.3491 11.288 19.9936 11.7193 20.5361 12.2627C21.0804 12.8056 21.5125 13.4509 21.8066 14.1611C22.1005 14.8707 22.2507 15.6314 22.25 16.3994L22.2441 16.6875C22.2118 17.3578 22.064 18.0183 21.8066 18.6396C21.5128 19.3491 21.0805 19.9926 20.5371 20.5352L20.5381 20.5361C19.9952 21.0804 19.3498 21.5125 18.6396 21.8066C17.9295 22.1008 17.1681 22.2509 16.3994 22.25C15.6314 22.2507 14.8707 22.1005 14.1611 21.8066C13.4509 21.5125 12.8056 21.0804 12.2627 20.5361C12.0293 20.3031 11.818 20.0501 11.6279 19.7822C11.5704 19.7938 11.5111 19.8008 11.4502 19.8008H2.90039C2.40333 19.8008 2 19.3974 2 18.9004C2 15.2978 3.90163 12.1 6.83398 10.7207C6.69571 10.6097 6.56211 10.4918 6.43555 10.3652C5.51662 9.44631 5 8.19995 5 6.90039C5 6.257 5.12687 5.61982 5.37305 5.02539C5.6193 4.43089 5.98054 3.89055 6.43555 3.43555C6.89055 2.98054 7.4309 2.61929 8.02539 2.37305C8.61982 2.12687 9.257 2 9.90039 2ZM16.3994 12.25C15.8547 12.2493 15.3148 12.357 14.8115 12.5654C14.3085 12.7739 13.8514 13.0794 13.4668 13.4648L13.4648 13.4668C13.0794 13.8514 12.7739 14.3085 12.5654 14.8115C12.357 15.3148 12.2493 15.8547 12.25 16.3994V16.4014C12.2493 16.9461 12.357 17.486 12.5654 17.9893C12.7739 18.4923 13.0794 18.9494 13.4648 19.334L13.4668 19.3359C13.8514 19.7214 14.3085 20.0269 14.8115 20.2354C15.3148 20.4438 15.8547 20.5515 16.3994 20.5508H16.4014C16.9461 20.5515 17.486 20.4438 17.9893 20.2354C18.4923 20.0269 18.9494 19.7214 19.334 19.3359L19.3359 19.334C19.7214 18.9494 20.0269 18.4923 20.2354 17.9893C20.4438 17.486 20.5515 16.9461 20.5508 16.4014V16.3994C20.5515 15.8547 20.4438 15.3148 20.2354 14.8115C20.0269 14.3085 19.7214 13.8514 19.3359 13.4668L19.334 13.4648C18.9494 13.0794 18.4923 12.7739 17.9893 12.5654C17.486 12.357 16.9461 12.2493 16.4014 12.25H16.3994ZM10.1006 11.8008C6.84848 11.8008 4.22938 14.4266 3.84961 18H10.7734C10.6261 17.4803 10.5501 16.9418 10.5508 16.3994C10.5501 15.6314 10.7002 14.8707 10.9941 14.1611C11.2883 13.4509 11.7204 12.8056 12.2646 12.2627C12.2712 12.2562 12.2776 12.2496 12.2842 12.2432C12.2674 12.235 12.2511 12.225 12.2334 12.2168C11.811 12.0203 11.1152 11.8008 10.1006 11.8008ZM9.90039 3.80078C9.49329 3.80078 9.08998 3.88034 8.71387 4.03613C8.33779 4.19192 7.99585 4.42017 7.70801 4.70801C7.42017 4.99585 7.19192 5.3378 7.03613 5.71387C6.88034 6.08998 6.80078 6.49329 6.80078 6.90039C6.80078 7.72256 7.12665 8.51141 7.70801 9.09277C8.28937 9.67414 9.07822 10 9.90039 10C10.7226 10 11.5114 9.67414 12.0928 9.09277C12.6741 8.51141 13 7.72256 13 6.90039C13 6.49329 12.9204 6.08998 12.7646 5.71387C12.6089 5.3378 12.3806 4.99585 12.0928 4.70801C11.8049 4.42017 11.463 4.19192 11.0869 4.03613C10.7108 3.88034 10.3075 3.80078 9.90039 3.80078Z" fill="#596072"/>
</svg>
