<svg width="21" height="19" viewBox="0 0 21 19" fill="none" xmlns="http://www.w3.org/2000/svg">
<path fill-rule="evenodd" clip-rule="evenodd" d="M19.8011 1.5364C20.1526 1.18492 20.1526 0.615076 19.8011 0.263604C19.4496 -0.087868 18.8798 -0.087868 18.5283 0.263604L1.7636 17.0283C1.41213 17.3798 1.41213 17.9496 1.7636 18.3011C2.11508 18.6526 2.68492 18.6526 3.0364 18.3011L6.13083 15.2066C7.41463 15.6889 8.85398 15.98 10.4 15.98C13.3552 15.98 15.9218 14.9237 17.7574 13.4968C19.5484 12.1045 20.8 10.2244 20.8 8.49C20.8 6.77304 19.5848 4.90904 17.8199 3.51755L19.8011 1.5364ZM13.7756 7.56193L9.47242 11.8651C9.76806 11.9464 10.0792 11.9899 10.4004 11.9899C12.3304 11.9899 13.9004 10.4199 13.9004 8.4899C13.9004 8.16875 13.8569 7.85757 13.7756 7.56193Z" fill="#CCCCCC"/>
<path d="M14.7362 1.78593C13.4382 1.2957 11.9767 1 10.4 1C7.44298 1 4.87622 2.06501 3.04165 3.49521C1.25305 4.88958 0 6.76945 0 8.49C0 10.2098 1.25191 12.0887 3.03922 13.4829L7.04294 9.47996C6.95019 9.16592 6.90039 8.83362 6.90039 8.4899C6.90039 6.5599 8.47039 4.9899 10.4004 4.9899C10.7441 4.9899 11.0764 5.0397 11.3904 5.13245L14.7362 1.78593Z" fill="#CCCCCC"/>
</svg>
