<svg width="64" height="64" viewBox="0 0 64 64" fill="none" xmlns="http://www.w3.org/2000/svg">
<path d="M31.9974 5.59914C35.4655 5.59491 38.9001 6.27725 42.1042 7.60435C45.3065 8.93086 48.2156 10.8775 50.6641 13.3309L51.5625 14.271C53.5983 16.5128 55.2345 19.0923 56.3958 21.896C57.7223 25.0985 58.4046 28.5313 58.401 31.9976L58.3698 33.2971C58.2241 36.3213 57.5569 39.301 56.3958 42.1044C55.0693 45.3067 53.1201 48.2131 50.6667 50.6616L50.6693 50.6642C48.2198 53.1199 45.3086 55.0686 42.1042 56.396C38.9001 57.7231 35.4655 58.4055 31.9974 58.4012C28.5311 58.4048 25.0983 57.7225 21.8958 56.396C18.6914 55.0686 15.7802 53.1199 13.3307 50.6642C10.8779 48.216 8.93044 45.3061 7.60417 42.1044C6.27707 38.9003 5.59473 35.4656 5.59896 31.9976C5.59542 28.5313 6.27773 25.0985 7.60417 21.896C8.93153 18.6916 10.8803 15.7804 13.3359 13.3309C15.7845 10.8775 18.6935 8.93086 21.8958 7.60435C25.0983 6.27791 28.5311 5.5956 31.9974 5.59914ZM31.9974 10.4012C29.1613 10.3977 26.352 10.9539 23.7318 12.0392C21.1118 13.1245 18.7319 14.7165 16.7292 16.7241L16.724 16.7293C14.7163 18.7321 13.1243 21.112 12.0391 23.732C10.9537 26.3522 10.3975 29.1615 10.401 31.9976V32.0028C10.3975 34.8389 10.9537 37.6482 12.0391 40.2684C13.1243 42.8884 14.7163 45.2682 16.724 47.271L16.7292 47.2762C18.7319 49.2839 21.1118 50.8758 23.7318 51.9611C26.352 53.0465 29.1613 53.6026 31.9974 53.5991H32.0026C34.8387 53.6026 37.648 53.0465 40.2682 51.9611C42.8882 50.8758 45.2681 49.2839 47.2708 47.2762L47.276 47.271C49.2837 45.2682 50.8757 42.8884 51.9609 40.2684C53.0463 37.6482 53.6025 34.8389 53.599 32.0028V31.9976C53.6025 29.1615 53.0463 26.3522 51.9609 23.732C50.8757 21.112 49.2837 18.7321 47.276 16.7293L47.2708 16.7241C45.2681 14.7165 42.8882 13.1245 40.2682 12.0392C37.648 10.9539 34.8387 10.3977 32.0026 10.4012H31.9974Z" fill="#00C635"/>
<path d="M41.7682 23.1017C42.7054 22.1654 44.2244 22.1653 45.1615 23.1017C46.0987 24.039 46.0987 25.5603 45.1615 26.4976L30.7604 40.896C30.3105 41.3458 29.7013 41.599 29.0651 41.5991C28.4286 41.5991 27.8173 41.3461 27.3672 40.896L20.1667 33.6955C19.2305 32.7582 19.23 31.2392 20.1667 30.3023C21.1039 29.365 22.6252 29.365 23.5625 30.3023L29.0625 35.8049L41.7682 23.1017Z" fill="#00C635"/>
</svg>
