<svg width="24" height="24" viewBox="0 0 24 24" fill="none" xmlns="http://www.w3.org/2000/svg">
<path d="M14.1207 13.0126V10.9874C14.1207 10.4841 14.5281 10.0756 15.0302 10.0756C15.5322 10.0756 15.9396 10.4841 15.9396 10.9874V13.0126C15.9396 13.5159 15.5322 13.9244 15.0302 13.9244C14.5281 13.9244 14.1207 13.5159 14.1207 13.0126ZM14.1207 6.93696V5.82349H4.92957C4.6349 5.82349 4.35277 5.94092 4.14441 6.14981C3.93604 6.35871 3.8189 6.64154 3.8189 6.93696V9.21038C4.25265 9.35252 4.65215 9.59382 4.98086 9.92336C5.53019 10.4741 5.83902 11.2212 5.83902 12C5.83902 12.7788 5.53019 13.5259 4.98086 14.0766C4.65223 14.4061 4.25254 14.6465 3.8189 14.7886V17.063C3.8189 17.3585 3.93604 17.6413 4.14441 17.8502C4.35277 18.0591 4.6349 18.1765 4.92957 18.1765H14.1207V17.063C14.1207 16.5597 14.5281 16.1513 15.0302 16.1513C15.5322 16.1513 15.9396 16.5597 15.9396 17.063V18.1765H19.0704C19.3651 18.1765 19.6472 18.0591 19.8556 17.8502C20.064 17.6413 20.1811 17.3585 20.1811 17.063V14.7886C19.7475 14.6465 19.3478 14.4061 19.0191 14.0766C18.4698 13.5259 18.161 12.7788 18.161 12C18.161 11.2212 18.4698 10.4741 19.0191 9.92336C19.3478 9.59382 19.7473 9.35252 20.1811 9.21038V6.93696C20.1811 6.64154 20.064 6.35871 19.8556 6.14981C19.6472 5.94092 19.3651 5.82349 19.0704 5.82349H15.9396V6.93696C15.9396 7.44028 15.5322 7.8487 15.0302 7.8487C14.5281 7.8487 14.1207 7.44028 14.1207 6.93696ZM22 9.97478C22 10.4781 21.5926 10.8865 21.0905 10.8865C20.7959 10.8865 20.5138 11.004 20.3054 11.2129C20.097 11.4217 19.9799 11.7046 19.9799 12C19.9799 12.2954 20.097 12.5783 20.3054 12.7871C20.5138 12.996 20.7959 13.1135 21.0905 13.1135C21.5926 13.1135 22 13.5219 22 14.0252V17.063C22 17.8419 21.6912 18.589 21.1418 19.1397C20.5925 19.6904 19.8473 20 19.0704 20H4.92957C4.15271 20 3.40748 19.6904 2.85816 19.1397C2.30883 18.589 2 17.8419 2 17.063V14.0252C2 13.5219 2.40739 13.1135 2.90945 13.1135C3.20412 13.1135 3.48625 12.996 3.69461 12.7871C3.90298 12.5783 4.02012 12.2954 4.02012 12C4.02012 11.7046 3.90298 11.4217 3.69461 11.2129C3.48625 11.004 3.20412 10.8865 2.90945 10.8865C2.40739 10.8865 2 10.4781 2 9.97478V6.93696C2 6.15813 2.30883 5.41103 2.85816 4.86032C3.40748 4.30961 4.15271 4 4.92957 4H19.0704C19.8473 4 20.5925 4.30961 21.1418 4.86032C21.6912 5.41103 22 6.15813 22 6.93696V9.97478Z" fill="#596072"/>
</svg>
