<svg preserveAspectRatio="none" width="100%" height="100%" overflow="visible" style="display: block;" viewBox="0 0 24 24" fill="none" xmlns="http://www.w3.org/2000/svg">
  <path d="M18.1055 11.0527C18.1055 9.18231 17.3626 7.38804 16.04 6.06543C14.7174 4.74283 12.9232 4.00003 11.0527 4C9.18226 4 7.38805 4.7428 6.06543 6.06543C4.7428 7.38805 4 9.18226 4 11.0527C4.00003 12.9232 4.74283 14.7174 6.06543 16.04C7.38804 17.3626 9.18231 18.1055 11.0527 18.1055C12.9211 18.1054 14.713 17.3638 16.0352 16.0439L16.0488 16.0303C17.3656 14.7086 18.1054 12.9188 18.1055 11.0527ZM20.1055 11.0527C20.1054 13.1164 19.3981 15.1055 18.1221 16.7021L21.208 19.7939C21.5979 20.1849 21.5969 20.818 21.2061 21.208C20.8151 21.5979 20.182 21.5969 19.792 21.2061L16.709 18.1172C15.1112 19.3966 13.1192 20.1054 11.0527 20.1055C8.65188 20.1055 6.34906 19.1517 4.65137 17.4541C2.95369 15.7564 2.00003 13.4536 2 11.0527C2 8.65183 2.95367 6.34906 4.65137 4.65137C6.34906 2.95367 8.65183 2 11.0527 2C13.4536 2.00003 15.7564 2.95369 17.4541 4.65137C19.1517 6.34906 20.1055 8.65188 20.1055 11.0527Z" fill="#596072"/>
</svg>
