<svg width="24" height="24" viewBox="0 0 24 24" fill="none" xmlns="http://www.w3.org/2000/svg">
<path fill-rule="evenodd" clip-rule="evenodd" d="M5.92969 3.44484C6.76548 3.12109 7.68097 3.06349 8.55078 3.2798C9.4206 3.49613 10.2023 3.97627 10.7891 4.65382C11.3741 5.32952 11.7371 6.16909 11.8281 7.05812C11.8545 7.29969 11.8663 7.493 11.8721 7.65284C11.9147 7.65159 11.9573 7.65089 12 7.65089C12.0437 7.65089 12.0873 7.65251 12.1309 7.65382C12.1317 7.43398 12.1436 7.22765 12.1777 7.01515C12.2697 6.19637 12.5921 5.41986 13.1084 4.77687C13.6355 4.12061 14.342 3.63058 15.1416 3.36769C15.9411 3.10494 16.7997 3.08 17.6133 3.29542C18.427 3.51094 19.1609 3.95833 19.7256 4.58253C20.29 5.20663 20.6617 5.98114 20.7949 6.81202C20.928 7.64305 20.8169 8.49587 20.4756 9.26515C20.2026 9.87992 19.7895 10.4186 19.2754 10.8452C19.7634 11.1283 20.1891 11.4911 20.5459 11.9243C21.4488 13.0208 21.8506 14.4809 21.8506 16.0005C21.8503 16.4697 21.4693 16.8501 21 16.8501C20.5309 16.8499 20.1506 16.4696 20.1504 16.0005C20.1504 14.7594 19.8207 13.7187 19.2334 13.0054C18.6647 12.315 17.7897 11.8501 16.5 11.8501C16.4487 11.85 16.3967 11.8451 16.3457 11.8433C16.3476 11.8955 16.3496 11.9482 16.3496 12.0005C16.3495 13.154 15.8918 14.261 15.0762 15.0767C15.0059 15.147 14.9319 15.2129 14.8574 15.2778C16.9061 16.2298 18.3496 18.1773 18.3496 20.5005C18.3494 20.9697 17.9693 21.3501 17.5 21.3501C17.0307 21.3501 16.6506 20.9697 16.6504 20.5005C16.6504 18.2833 14.6465 16.3501 12 16.3501C9.35349 16.3501 7.34961 18.2833 7.34961 20.5005C7.34935 20.9697 6.96928 21.3501 6.5 21.3501C6.03072 21.3501 5.65065 20.9697 5.65039 20.5005C5.65039 18.1773 7.09387 16.2298 9.14258 15.2778C9.0681 15.2129 8.99414 15.147 8.92383 15.0767C8.10816 14.261 7.65052 13.154 7.65039 12.0005C7.65039 11.9733 7.65086 11.9456 7.65137 11.9185C5.43674 12.2794 3.84961 14.0273 3.84961 16.0005C3.84935 16.4697 3.46928 16.8501 3 16.8501C2.53072 16.8501 2.15065 16.4697 2.15039 16.0005C2.15039 13.9086 3.32025 12.1206 5.04883 11.0903C4.65206 10.8193 4.29868 10.4854 4.00879 10.0952C3.47446 9.37573 3.17525 8.50773 3.15234 7.61183C3.12958 6.71596 3.38392 5.83415 3.88086 5.08839C4.37794 4.34262 5.09397 3.76863 5.92969 3.44484ZM12 9.35011C11.6521 9.35011 11.3077 9.41918 10.9863 9.55226C10.6649 9.68543 10.372 9.88045 10.126 10.1265C9.88001 10.3725 9.68489 10.6654 9.55176 10.9868C9.41879 11.3081 9.34961 11.6528 9.34961 12.0005C9.34974 12.7032 9.62912 13.3777 10.126 13.8745C10.6229 14.3713 11.2973 14.6509 12 14.6509L12.2617 14.6372C12.8683 14.577 13.4392 14.3093 13.874 13.8745C14.3709 13.3777 14.6503 12.7032 14.6504 12.0005C14.6504 11.6528 14.5812 11.3081 14.4482 10.9868C14.3151 10.6654 14.12 10.3725 13.874 10.1265C13.628 9.88045 13.3351 9.68543 13.0137 9.55226C12.6923 9.41918 12.3479 9.35011 12 9.35011ZM8.14062 4.92921C7.61083 4.79746 7.05303 4.83267 6.54395 5.0298C6.03483 5.22706 5.59871 5.57741 5.2959 6.03175C4.99323 6.48606 4.83767 7.02313 4.85156 7.56886C4.86557 8.11452 5.04761 8.64333 5.37305 9.08156C5.6986 9.51979 6.15246 9.84703 6.6709 10.0181C7.13234 10.1702 7.62544 10.1903 8.09668 10.0816C8.30689 9.6536 8.58583 9.26237 8.92383 8.92433C9.28417 8.56399 9.70473 8.26955 10.166 8.05519C10.1821 7.85667 10.1974 7.78078 10.1387 7.24269L10.1377 7.23585C10.083 6.69266 9.86125 6.17886 9.50391 5.76613C9.14648 5.35355 8.67035 5.06097 8.14062 4.92921ZM17.1787 4.93898C16.683 4.80769 16.159 4.82277 15.6719 4.98292C15.1849 5.1431 14.7546 5.44162 14.4336 5.84132C14.1127 6.24104 13.9145 6.72583 13.8633 7.23585C13.8616 7.25234 13.8591 7.26929 13.8564 7.28566C13.8252 7.4803 13.8215 7.67399 13.8418 8.05909C14.3 8.27313 14.7179 8.56605 15.0762 8.92433C15.4144 9.26258 15.6931 9.65427 15.9033 10.0825C16.0914 10.1257 16.2896 10.1494 16.5 10.1499C17.0126 10.1498 17.5146 10.0015 17.9443 9.72218C18.374 9.44274 18.7139 9.04409 18.9219 8.5757C19.1298 8.1072 19.1972 7.58766 19.1162 7.08156C19.0351 6.57542 18.8086 6.10335 18.4648 5.72316C18.121 5.34303 17.6742 5.07032 17.1787 4.93898Z" fill="#596072"/>
</svg>
